<svg id="Layer_1" enable-background="new 0 0 30 30" height="512" viewBox="0 0 30 30" width="512" xmlns="http://www.w3.org/2000/svg"><g><path d="m25.961 3.05h-21.921c-2.092.002-3.787 1.697-3.79 3.789v16.321c.002 2.092 1.698 3.788 3.79 3.79h21.921c2.092-.003 3.787-1.698 3.789-3.79v-16.321c-.003-2.091-1.698-3.786-3.789-3.789zm2.289 20.11c-.001 1.264-1.025 2.288-2.289 2.29h-21.921c-1.264-.001-2.289-1.026-2.29-2.29v-3.51l6.891-6.886c.392-.383 1.076-.394 1.443.03l9.03 9.852c.662.719 1.768-.287 1.106-1.014 0 0-2.045-2.232-2.045-2.232l2.675-2.887c.365-.414 1.054-.422 1.437-.028l5.963 5.975zm0-2.821-4.9-4.909c-.977-.976-2.56-.975-3.536.002-.022.022-.043.044-.064.067l-2.591 2.8-5.97-6.512c-.905-1.043-2.661-1.096-3.608-.082l-5.831 5.824v-10.69c.002-1.264 1.026-2.288 2.29-2.289h21.921c1.263.002 2.287 1.026 2.289 2.289z"/><path d="m16.869 7.112c-3.818.097-3.815 5.684-.002 5.788 3.817-.095 3.818-5.69.002-5.788zm0 4.288c-1.834-.031-1.831-2.751-.002-2.789v.001c1.833.03 1.834 2.756.002 2.788z"/></g></svg>