<svg id="like_1_" data-name="like (1)" xmlns="http://www.w3.org/2000/svg" width="16" height="16.012" viewBox="0 0 16 16.012">
  <g id="Group_45241" data-name="Group 45241" transform="translate(0 7.035)">
    <g id="Group_45240" data-name="Group 45240" transform="translate(0)">
      <path id="Path_71894" data-name="Path 71894" d="M.668,224.948a.474.474,0,0,0-.474.474v6.957a.474.474,0,0,0,.474.474H3.521v-7.9Z" transform="translate(-0.194 -224.948)" fill="#0079ff"/>
    </g>
  </g>
  <g id="Group_45243" data-name="Group 45243" transform="translate(4.275)">
    <g id="Group_45242" data-name="Group 45242" transform="translate(0 0)">
      <path id="Path_71895" data-name="Path 71895" d="M148.611,9.651a1.652,1.652,0,0,0-.8-1.417,1.65,1.65,0,0,0-1.358-2.589h-3.486c.107-.484.253-1.211.355-1.971.265-1.979.084-3.077-.569-3.454a1.428,1.428,0,0,0-1.236-.135,1.625,1.625,0,0,0-.94,1.09l-.916,2.4a8.947,8.947,0,0,1-2.769,3.017v8.559a15.312,15.312,0,0,0,5.081.863h3.8a1.651,1.651,0,0,0,1.4-2.521,1.65,1.65,0,0,0,.638-2.423A1.652,1.652,0,0,0,148.611,9.651Z" transform="translate(-136.886 0)" fill="#0079ff"/>
    </g>
  </g>
</svg>
