<svg xmlns="http://www.w3.org/2000/svg" width="17" height="12.999" viewBox="0 0 17 12.999">
  <g id="Group_48356" data-name="Group 48356" transform="translate(-5026 19609.885)">
    <path id="Path_77340" data-name="Path 77340" d="M104.163,109a4.132,4.132,0,0,0,.818,2.422,3.686,3.686,0,0,0,3.907,1.4,4.323,4.323,0,0,1-2.222,4.635,4.508,4.508,0,1,1-2.5-8.453" transform="translate(4930.002 -19714.891)" fill="#424242"/>
    <path id="Path_77341" data-name="Path 77341" d="M8.051.012a8.855,8.855,0,0,1,8.506,5.2,4.393,4.393,0,0,1,.437,1.423.428.428,0,0,1-.751.129,8.16,8.16,0,0,0-5.469-5.589A8.052,8.052,0,0,0,.754,6.767a.428.428,0,0,1-.741-.1A2.74,2.74,0,0,1,.295,5.55,8.872,8.872,0,0,1,8.051.012" transform="translate(5026 -19609.885)" fill="#424242"/>
  </g>
</svg>
