<svg id="Icons" height="512" viewBox="0 0 60 60" width="512" xmlns="http://www.w3.org/2000/svg"><path d="m35.263 38.722-1.978-.593-1.871 1.871 1.519 1.519z"/><path d="m26.982 45.052-.391-1.552a1.935 1.935 0 0 1 -1.009-.635l-2.929-3.513-1.536.461a6.7 6.7 0 0 0 -4.428 4.3l-.2.6a19.925 19.925 0 0 0 9.836 4.943z"/><path d="m33.409 43.5-.391 1.557.656 4.595a19.932 19.932 0 0 0 9.837-4.952l-.2-.6a6.7 6.7 0 0 0 -4.429-4.3l-1.536-.461-2.927 3.521a1.937 1.937 0 0 1 -1.01.64z"/><path d="m26.715 38.129-1.978.593 2.33 2.797 1.519-1.519z"/><path d="m35.366 31.327a10.528 10.528 0 0 0 .634-3.338 1 1 0 0 1 1-.989 1 1 0 0 0 0-2 1 1 0 0 1 -1-1 1.138 1.138 0 0 0 -1.01-1.137 11.8 11.8 0 0 1 -4.99-1.708 11.787 11.787 0 0 1 -5 1.708 1.131 1.131 0 0 0 -1 1.107 1.026 1.026 0 0 1 -1 1.03 1 1 0 0 0 0 2 1 1 0 0 1 1 .993 10.4 10.4 0 0 0 .624 3.333c.598 1.443 3.863 3.674 5.376 3.674s4.769-2.231 5.366-3.673z"/><path d="m28.506 42.908.274 1.092h2.44l.274-1.092-1.494-1.494z"/><path d="m24.77 20.877a9.116 9.116 0 0 0 4.33-1.546 1.4 1.4 0 0 1 1.809 0 9.106 9.106 0 0 0 4.322 1.548 3.149 3.149 0 0 1 2.658 2.256c.04.012.077.032.116.046v-.181a8 8 0 0 0 -16 0v.18c.041-.015.079-.035.121-.048a3.141 3.141 0 0 1 2.644-2.255z"/><path d="m28.868 46-.56 3.914c.559.047 1.121.086 1.692.086s1.133-.039 1.692-.086l-.56-3.914z"/><path d="m32 36.534a5.533 5.533 0 0 1 -2 .466 5.551 5.551 0 0 1 -2-.465v.051l2 2 2-2z"/><path d="m57.891 27.6a.7.7 0 0 0 -.443-.557l-3.374-1.343a1 1 0 0 1 -.607-.72 23.819 23.819 0 0 0 -3.324-8.016 1 1 0 0 1 -.081-.937l1.428-3.347a.66.66 0 0 0 -.074-.7 27.838 27.838 0 0 0 -3.385-3.38.664.664 0 0 0 -.708-.086l-3.349 1.424a1 1 0 0 1 -.937-.081 23.819 23.819 0 0 0 -8.016-3.324 1 1 0 0 1 -.72-.607l-1.35-3.378a.7.7 0 0 0 -.551-.438 26.33 26.33 0 0 0 -4.783 0 .7.7 0 0 0 -.567.443l-1.35 3.373a1 1 0 0 1 -.72.607 23.819 23.819 0 0 0 -8.016 3.324 1 1 0 0 1 -.937.081l-3.348-1.428a.658.658 0 0 0 -.7.074 27.907 27.907 0 0 0 -3.379 3.385.664.664 0 0 0 -.086.708l1.429 3.349a1 1 0 0 1 -.081.937 23.819 23.819 0 0 0 -3.324 8.016 1 1 0 0 1 -.607.72l-3.378 1.35a.7.7 0 0 0 -.438.554 26.241 26.241 0 0 0 0 4.783.7.7 0 0 0 .443.567l3.368 1.347a1 1 0 0 1 .607.72 23.819 23.819 0 0 0 3.324 8.016 1 1 0 0 1 .081.937l-1.428 3.348a.658.658 0 0 0 .073.7 27.854 27.854 0 0 0 3.386 3.388.665.665 0 0 0 .708.086l3.349-1.429a.994.994 0 0 1 .937.081 23.819 23.819 0 0 0 8.016 3.324 1 1 0 0 1 .72.607l1.35 3.378a.7.7 0 0 0 .555.439 26.5 26.5 0 0 0 4.782 0 .7.7 0 0 0 .567-.444l1.347-3.377a1 1 0 0 1 .72-.607 23.819 23.819 0 0 0 8.016-3.324 1 1 0 0 1 .937-.081l3.347 1.428a.651.651 0 0 0 .7-.073 27.765 27.765 0 0 0 3.38-3.386.66.66 0 0 0 .087-.708l-1.429-3.349a1 1 0 0 1 .081-.937 23.819 23.819 0 0 0 3.324-8.016 1 1 0 0 1 .607-.72l3.378-1.35a.7.7 0 0 0 .439-.555 26.5 26.5 0 0 0 0-4.782zm-27.891 24.4a22 22 0 1 1 22-22 22.025 22.025 0 0 1 -22 22z"/></svg>