<svg id="Layer_1" enable-background="new 0 0 512 512" viewBox="0 0 512 512" xmlns="http://www.w3.org/2000/svg"><path clip-rule="evenodd" d="m356.038 264.874v37.04c0 25.832-21.105 46.938-46.938 46.938h-56.352c-4.418 0-8-3.582-8-8s3.582-8 8-8h56.352c17 0 30.938-13.938 30.938-30.938v-37.04l-13.877 13.877c-3.124 3.124-8.189 3.124-11.313 0s-3.124-8.189 0-11.313l27.533-27.533c3.124-3.124 8.189-3.124 11.313 0l27.533 27.533c3.124 3.124 3.124 8.189 0 11.313s-8.189 3.124-11.313 0zm-10.187-102.458-123.134-35.516c-8.192-2.152-7.995-13.202-.384-15.414l123.402-35.98c1.425-.431 2.986-.47 4.522-.025l123.409 35.788c7.728 2.202 7.724 13.118.078 15.335l-123.487 35.811-.002-.008c-1.391.405-2.909.436-4.404.009zm133.674-29.645c-1.096.635-2.284 1.148-3.553 1.517l-12.446 3.609v36.648l-7.013 5.702c-2.091 1.443-3.462 3.856-3.462 6.588v50.483h.025c-.004 6.515 7.735 10.473 13.006 6.188l5.414-4.402 5.228 4.273c5.442 4.612 13.277.652 13.277-6.012v-50.484h-.005c-.001-2.314-1.002-4.608-2.932-6.188l-7.537-6.16v-41.762zm-219.117 55.947 87.63 17.905 87.631-17.905v-42.72l-83.144 24.111c-2.968.861-6.111.844-9.029-.04l-83.087-24.226v42.875zm-132.056 152.134c55.356 0 100.884 42.072 106.352 95.984h-212.704c5.47-53.913 50.997-95.984 106.352-95.984zm0-129.997c26.415 0 47.827 21.412 47.827 47.826s-21.413 47.827-47.827 47.827-47.827-21.413-47.827-47.827 21.414-47.826 47.827-47.826z" fill-rule="evenodd"/></svg>