<svg id="Layer_1" viewBox="0 0 512 512" xmlns="http://www.w3.org/2000/svg" data-name="Layer 1"><path d="m459.6 305.589c.175 2.709.262 5.479.262 8.218a132.867 132.867 0 0 1 -1.223 17.807l-14.019 3.526-11.453 2.915a105.886 105.886 0 0 1 -13.144 31.679l6.062 10.171 7.4 12.416a131.117 131.117 0 0 1 -25.18 25.151l-12.386-7.4-10.171-6.062a104.991 104.991 0 0 1 -31.709 13.144l-2.885 11.483-3.527 13.989a130.135 130.135 0 0 1 -35.613 0l-3.527-13.989-2.887-11.486a105.225 105.225 0 0 1 -18.973-6.382c-3.264-23.548-9.034-46.718-19.555-63.447-14.98-23.781-36.226-31.941-60.445-43.541l-6.178-2.972c.145-1.6.349-3.206.554-4.78l14.018-3.555 11.453-2.886a106.822 106.822 0 0 1 13.144-31.708l-6.062-10.172-7.4-12.386a130.42 130.42 0 0 1 25.18-25.18l12.386 7.4 10.171 6.091a104.991 104.991 0 0 1 31.707-13.141l2.885-11.483 3.527-14.018a133.263 133.263 0 0 1 35.613 0l3.527 14.018 2.885 11.483a104.991 104.991 0 0 1 31.709 13.144l10.171-6.091 12.386-7.4a130.42 130.42 0 0 1 25.18 25.18l-7.4 12.386-6.062 10.172c.845 1.4 1.69 2.8 2.477 4.226l-9.326 16.116h-24.51a68.76 68.76 0 1 0 7.461 53.887h48.147zm-259.177 11.191-45.323 95.475-.146-.758-4.9-85.071c3.206-1.107 5.45-2.739 5.741-4.925l3.305-28.911h-41.475l3.293 28.911c.262 2.215 2.506 3.876 5.77 4.954l-4.954 85.975-45.406-95.65h-.028c-47.681 22.82-72.074 27.22-76.3 155.482h276.751c-4.251-128.262-28.62-132.662-76.328-155.482zm93.144-220.591h-25.067v60.241h25.064zm89.18-48h-25.064v108.241h25.064zm-44.59 23.985h-25.064v84.256h25.064zm168.248 98.448-50.245 22.558 17.079 9.851-51.76 89.588h-98.535l-24.51 42.434 21.741 12.532 17.253-29.873h98.535l58.988-102.149 17.049 9.821zm-467.177-.671a30.625 30.625 0 0 1 1.952-21.651v-.146l.962-1.69c.554-.962 1.166-1.924 1.807-2.827v-32.875a72.821 72.821 0 0 1 32.2-60.008 65.1 65.1 0 0 1 36.139-11.016 71.1 71.1 0 0 1 32.087 7.956 64.092 64.092 0 0 0 10.666 4.43 20.9 20.9 0 0 0 10.463.554 55.27 55.27 0 0 1 12.678-1.516 51.686 51.686 0 0 1 34.069 12.853 59.976 59.976 0 0 1 18.8 31.621 66.152 66.152 0 0 1 1.748 15.126v32.728a30.958 30.958 0 0 1 1.924 33.515 31.413 31.413 0 0 1 -10.4 10.9 32.094 32.094 0 0 1 -8.394 3.671c-.7 4.838-1.632 9.326-2.652 13.815-3.934 17.311-14.834 36.255-29.115 50.244-13.056 12.735-29.085 21.566-45.639 21.77h-.2c-16.583-.145-32.67-9-45.727-21.77v-.029c-14.281-13.99-25.209-32.933-29.144-50.215-1.02-4.489-1.953-8.977-2.652-13.844-.233-.087-.495-.145-.728-.233a31 31 0 0 1 -4.489-1.749h-.145l-1.662-.932a30.814 30.814 0 0 1 -14.548-18.681zm175.912-23.08a197.062 197.062 0 0 1 2.04 25.413v3.147a16.677 16.677 0 0 0 5.042-5.508 16.555 16.555 0 0 0 -6.208-22.586c-.291-.175-.582-.321-.874-.466zm-137.7 55.373c3.352 14.689 12.794 30.951 25.181 43.1h.029c10.637 10.375 23.286 17.574 35.73 17.72 12.445-.146 25.064-7.345 35.7-17.72 12.445-12.153 21.858-28.415 25.21-43.1a121.853 121.853 0 0 0 3.555-29.843c-.087-11.192-1.661-25.356-5.712-45.2-15.184 1.748-29.785 1.486-43.308-1.779a79.71 79.71 0 0 1 -36.371-19.293 61.129 61.129 0 0 1 -17.054 12.734c-6.3 3.09-12.8 4.868-20.4 6.412-4.342 20.9-6 35.585-6.091 47.126a120.567 120.567 0 0 0 3.526 29.843zm-24.398-36.109a16.542 16.542 0 0 0 6.528 9.209q-.044-1.486 0-3.06a195.289 195.289 0 0 1 2.011-25.355 4.919 4.919 0 0 1 -.525.292 16.221 16.221 0 0 0 -6.411 6.294l-.029.029a16.7 16.7 0 0 0 -1.574 12.591z"/></svg>