<svg xmlns="http://www.w3.org/2000/svg" xmlns:xlink="http://www.w3.org/1999/xlink" width="28" height="28" viewBox="0 0 28 28">
  <defs>
    <clipPath id="clip-path">
      <rect id="Rectangle_6996" data-name="Rectangle 6996" width="28" height="28" transform="translate(126)" fill="#fff"/>
    </clipPath>
  </defs>
  <g id="Group_45692" data-name="Group 45692" transform="translate(-126)" clip-path="url(#clip-path)">
    <path id="Path_72447" data-name="Path 72447" d="M140,28a14,14,0,1,0-14-14A14,14,0,0,0,140,28Z" fill="#e0e0e0"/>
    <path id="Path_72448" data-name="Path 72448" d="M144.817,12.812a2.039,2.039,0,1,0-2.039-2.039A2.039,2.039,0,0,0,144.817,12.812Z" fill="#9e9e9e"/>
    <path id="Path_72449" data-name="Path 72449" d="M134.637,12.812a2.039,2.039,0,1,0-2.04-2.039A2.039,2.039,0,0,0,134.637,12.812Z" fill="#9e9e9e"/>
    <path id="Path_72450" data-name="Path 72450" d="M145.089,17.1a.689.689,0,0,1,.392,1.256,10.763,10.763,0,0,1-3.418,1.42,9.3,9.3,0,0,1-7.544-1.42.692.692,0,0,1-.187-.193.685.685,0,0,1-.1-.25.694.694,0,0,1,0-.269.691.691,0,0,1,.549-.533.69.69,0,0,1,.269,0,.7.7,0,0,1,.247.106,7.937,7.937,0,0,0,3.441,1.365,8.329,8.329,0,0,0,3.011-.153,9.476,9.476,0,0,0,2.945-1.211A.689.689,0,0,1,145.089,17.1Z" fill="#9e9e9e"/>
    <path id="Path_72451" data-name="Path 72451" d="M149.13,3.386a14,14,0,0,1-20.28,19.081A14,14,0,1,0,149.13,3.386Z" fill="#bdbdbd"/>
  </g>
</svg>
