<svg xmlns="http://www.w3.org/2000/svg" width="16" height="14" viewBox="0 0 16 14">
  <path id="heart_1_" data-name="heart (1)" d="M15.309,41.462a4.125,4.125,0,0,0-1.88-1.645,4.382,4.382,0,0,0-2.853-.2A6.044,6.044,0,0,0,8,41.077a6.044,6.044,0,0,0-2.575-1.459,4.38,4.38,0,0,0-2.854.2,4.126,4.126,0,0,0-1.88,1.646A4.988,4.988,0,0,0,0,44.162C.08,48.6,6.471,52.636,7.751,53.4a.486.486,0,0,0,.5,0c1.28-.764,7.672-4.8,7.749-9.239a4.988,4.988,0,0,0-.691-2.7ZM15,44.142c-.025,1.435-.95,3.108-2.674,4.838A24.5,24.5,0,0,1,8,52.352a24.489,24.489,0,0,1-4.325-3.372c-1.724-1.73-2.649-3.4-2.674-4.838A3.425,3.425,0,0,1,2.96,40.77a3.236,3.236,0,0,1,1.3-.266,4.8,4.8,0,0,1,3.388,1.65.488.488,0,0,0,.713,0c1.419-1.493,3.214-2.023,4.684-1.384A3.425,3.425,0,0,1,15,44.142Z" transform="translate(-0.001 -39.469)" fill="#424242"/>
</svg>
