<svg xmlns="http://www.w3.org/2000/svg" width="15" height="15" viewBox="0 0 15 15">
  <g id="like_3_" data-name="like (3)" transform="translate(-6.675)">
    <path id="Path_73839" data-name="Path 73839" d="M21.225,10.2a1.831,1.831,0,0,0,.449-1.245,1.883,1.883,0,0,0-.42-1.079,1.643,1.643,0,0,0-.41-1.929,3.64,3.64,0,0,0-2.591-.6,10.4,10.4,0,0,0-1.588.2h0c-.161.028-.332.063-.507.1a5.338,5.338,0,0,1,.4-1.823A3.271,3.271,0,0,0,16.475.775,2.077,2.077,0,0,0,14.833,0a.82.82,0,0,0-.623.276,2.06,2.06,0,0,0-.271,1.5c-.426,1.11-1.62,3.833-2.63,4.589a.343.343,0,0,0-.052.044,3.364,3.364,0,0,0-.632.922,1.362,1.362,0,0,0-.639-.157H8.017a1.325,1.325,0,0,0-1.342,1.3v5.1a1.325,1.325,0,0,0,1.342,1.3H9.986a1.366,1.366,0,0,0,.774-.238l.758.088a33.41,33.41,0,0,0,4.3.229c.384.028.745.044,1.081.044a7.442,7.442,0,0,0,1.5-.132,2.814,2.814,0,0,0,2-1.211,1.873,1.873,0,0,0,.219-1.2,1.974,1.974,0,0,0,.733-1.628A2.068,2.068,0,0,0,21.225,10.2ZM8.017,14.031a.465.465,0,0,1-.471-.458v-5.1a.465.465,0,0,1,.471-.458H9.986a.465.465,0,0,1,.471.458v5.1a.465.465,0,0,1-.471.458H8.017ZM20.4,9.831a.413.413,0,0,0-.058.511,1.279,1.279,0,0,1,.148.524,1.246,1.246,0,0,1-.607,1.085.42.42,0,0,0-.148.483,1.08,1.08,0,0,1-.087.809,2.029,2.029,0,0,1-1.426.8,8.742,8.742,0,0,1-2.352.069h-.045a32.754,32.754,0,0,1-4.195-.223h0l-.326-.038a1.293,1.293,0,0,0,.029-.276v-5.1a1.293,1.293,0,0,0-.061-.389,2.6,2.6,0,0,1,.6-1.076c1.449-1.117,2.866-4.884,2.927-5.047a.387.387,0,0,0,.019-.21,1.908,1.908,0,0,1,.042-.91,1.172,1.172,0,0,1,.91.423,2.6,2.6,0,0,1-.039,2.281c-.542,1.6-.587,2.437-.158,2.807a.719.719,0,0,0,.7.122c.2-.044.384-.082.561-.11l.042-.009c.991-.21,2.765-.339,3.382.207a.883.883,0,0,1,.11,1.145.411.411,0,0,0,.077.546,1.178,1.178,0,0,1,.358.731A1.151,1.151,0,0,1,20.4,9.831Z" transform="translate(0 0)" fill="#757575"/>
  </g>
</svg>
