<svg xmlns="http://www.w3.org/2000/svg" width="15" height="15" viewBox="0 0 15 15">
  <g id="wallet_3_" data-name="wallet (3)" transform="translate(-4 -4.4)">
    <path id="Path_76343" data-name="Path 76343" d="M30.929,11.728,29.873,9.979a1.275,1.275,0,0,0-1.653-.493c-.037.016-3.631,2.242-3.631,2.242Z" transform="translate(-15.055 -3.636)" fill="#fff"/>
    <path id="Path_76344" data-name="Path 76344" d="M16.847,8.092s4.3-2.673,4.39-2.714l-.621-.613a1.239,1.239,0,0,0-1.746-.011L15.41,8.092Z" transform="translate(-8.344 0)" fill="#fff"/>
    <path id="Path_76345" data-name="Path 76345" d="M43.4,33.62H39.969a1.629,1.629,0,1,0,0,3.258H43.4a.714.714,0,0,0,.714-.714V34.337a.717.717,0,0,0-.714-.717Zm-2.714,1.434a.267.267,0,1,1-.267.267.267.267,0,0,1,.267-.267Z" transform="translate(-25.114 -21.235)" fill="#fff"/>
    <path id="Path_76346" data-name="Path 76346" d="M14.84,27.6a2.162,2.162,0,0,1,0-4.324h2.782v-1.7a1.337,1.337,0,0,0-1.34-1.333H5.34A1.337,1.337,0,0,0,4,21.583V29.4a1.337,1.337,0,0,0,1.34,1.333H16.282a1.337,1.337,0,0,0,1.34-1.333V27.6c-.324,0-2.406,0-2.782,0Z" transform="translate(0 -11.337)" fill="#fff"/>
  </g>
</svg>
