<svg xmlns="http://www.w3.org/2000/svg" width="20" height="20" viewBox="0 0 20 20">
  <g id="Layer_2" data-name="Layer 2" transform="translate(-1.25 -1.25)">
    <path id="Path_75523" data-name="Path 75523" d="M20.552,8.4H1.948a.694.694,0,0,1-.593-.339.731.731,0,0,1-.031-.7L3.857,2.172A1.615,1.615,0,0,1,5.313,1.25H17.187a1.614,1.614,0,0,1,1.456.923l2.534,5.194a.731.731,0,0,1-.031.7.694.694,0,0,1-.593.339ZM3.077,6.971H19.423L17.394,2.812a.229.229,0,0,0-.207-.132H5.313a.231.231,0,0,0-.207.131Z" transform="translate(0)" fill="#616161"/>
    <path id="Path_75524" data-name="Path 75524" d="M20.552,7.25H1.948a.694.694,0,0,0-.7.691V19a2.548,2.548,0,0,0,2.558,2.533H18.692A2.548,2.548,0,0,0,21.25,19V7.941A.694.694,0,0,0,20.552,7.25Zm-6.019,7.628-2.791,2.764a.7.7,0,0,1-.986,0L7.966,14.878a.686.686,0,0,1,.017-.96.7.7,0,0,1,.969-.017l1.6,1.584V11.626a.7.7,0,0,1,1.4,0v3.859l1.6-1.584a.7.7,0,0,1,.969.017.686.686,0,0,1,.017.96Z" transform="translate(0 -0.279)" fill="#616161"/>
  </g>
</svg>
