<svg xmlns="http://www.w3.org/2000/svg" xmlns:xlink="http://www.w3.org/1999/xlink" width="20" height="20" viewBox="0 0 20 20">
  <defs>
    <clipPath id="clip-path">
      <rect id="Rectangle_5931" data-name="Rectangle 5931" width="20" height="20" fill="#616161"/>
    </clipPath>
  </defs>
  <g id="Group_12360" data-name="Group 12360" clip-path="url(#clip-path)">
    <path id="Path_32433" data-name="Path 32433" d="M43.065,177.527l4.321-5.37,1.038,2.149c.133.276.268.551.4.829a.421.421,0,0,0,.384.3c.209,0,.3-.142.383-.3q1.843-3.656,3.69-7.309c.043-.085.087-.169.146-.284l6.987,9.984Z" transform="translate(-40.411 -157.551)" fill="#616161"/>
    <path id="Path_32434" data-name="Path 32434" d="M27.73,12.435a3.355,3.355,0,0,0-.573.006c-.27.051-.531.15-.8.208a.257.257,0,0,1-.212-.086c-.136-.2-.25-.408-.354-.585.248-.256.478-.505.722-.741a.449.449,0,0,0,.12-.522c-.152-.481-.28-.97-.4-1.46a.436.436,0,0,0-.35-.365c-.336-.079-.67-.161-1.02-.246V7.77c.329-.079.661-.163,1-.239a.422.422,0,0,0,.374-.416,3.07,3.07,0,0,1,.4-1.451.353.353,0,0,0-.1-.463c-.245-.246-.484-.5-.745-.768.106-.179.227-.4.369-.611a.242.242,0,0,1,.206-.055c.283.067.563.149.841.232a.48.48,0,0,0,.532-.153c.351-.364.714-.717,1.09-1.056a.446.446,0,0,0,.157-.515c-.083-.263-.149-.531-.239-.791-.047-.136-.011-.2.114-.263.2-.1.4-.219.572-.314.257.23.514.442.748.674a.513.513,0,0,0,.577.136c.482-.145.973-.271,1.466-.377a.472.472,0,0,0,.417-.382c.075-.318.161-.634.243-.957h.9c.081.312.17.625.241.942a.491.491,0,0,0,.45.4c.487.1.967.232,1.443.375a.5.5,0,0,0,.559-.126c.236-.234.489-.451.751-.691.193.107.424.225.64.363a.227.227,0,0,1,.051.2c-.07.274-.154.544-.238.815a.436.436,0,0,0,.145.5c.379.348.75.7,1.109,1.073A.484.484,0,0,0,39.474,4c.272-.08.548-.144.818-.23.126-.04.194-.021.257.1.109.2.234.4.335.569-.247.257-.474.508-.719.742a.453.453,0,0,0-.126.522q.224.724.4,1.462a.45.45,0,0,0,.372.372c.335.076.669.158,1.007.238v.877c-.326.078-.65.163-.978.233a.477.477,0,0,0-.409.415c-.1.471-.232.938-.384,1.4a.48.48,0,0,0,.144.576c.24.219.457.461.7.706-.11.185-.228.4-.366.607a.235.235,0,0,1-.2.069c-.276-.063-.545-.159-.822-.214a3.228,3.228,0,0,0-.559-.006c-.345-.492-.734-1.043-1.112-1.6-.031-.047,0-.155.033-.217a4.945,4.945,0,0,0,.64-2.549,5.167,5.167,0,0,0-10.325.375,4.6,4.6,0,0,0,.627,2.147.265.265,0,0,1-.012.338c-.371.511-.727,1.032-1.063,1.512" transform="translate(-23.332)" fill="#616161"/>
    <path id="Path_32435" data-name="Path 32435" d="M98.927,71.744l-.624-.888c-.274-.388-.569-.366-.784.061L95.1,75.724c-.036.071-.077.139-.13.235-.046-.082-.081-.136-.109-.193q-.648-1.281-1.292-2.564a.6.6,0,0,1-.073-.252c0-1,0-1.994,0-2.991a.6.6,0,0,1,.018-.088h.244c.976,0,1.953,0,2.929,0a.45.45,0,0,0,.454-.2c.1-.183.008-.327-.094-.472a5.573,5.573,0,0,0-.349-.5.341.341,0,0,1-.006-.52c.142-.165.248-.358.375-.535.1-.142.195-.307.061-.447a.638.638,0,0,0-.407-.183c-1.168-.014-2.337-.009-3.505-.008-.33,0-.458.126-.458.448q0,1.9,0,3.794V71.5l-.035.013c-.083-.162-.178-.319-.245-.486-.237-.595-.641-.563-.918-.074-.152.27-.354.513-.541.779a4.122,4.122,0,0,1,.934-5,4.525,4.525,0,0,1,5.785-.213,4.166,4.166,0,0,1,1.2,5.226" transform="translate(-84.958 -61.665)" fill="#616161"/>
    <path id="Path_32436" data-name="Path 32436" d="M0,177.667l6.995-10c.047.084.081.14.111.2q1.2,2.382,2.407,4.763a.333.333,0,0,1,0,.349c-.233.442-.454.891-.7,1.382-.054-.1-.093-.165-.126-.233q-.609-1.262-1.216-2.524c-.228-.473-.488-.5-.824-.083q-2.378,2.957-4.751,5.918a.541.541,0,0,1-.5.23c-.449-.016-.9,0-1.4,0" transform="translate(0 -157.673)" fill="#616161"/>
    <path id="Path_32437" data-name="Path 32437" d="M138.714,101.866h2.6c-.112.164-.2.308-.3.444a.384.384,0,0,0,0,.512c.1.137.193.281.306.447h-2.6Z" transform="translate(-130.165 -95.791)" fill="#616161"/>
  </g>
</svg>
