<svg height="512" viewBox="0 0 64 64" width="512" xmlns="http://www.w3.org/2000/svg"><g id="_24-Crowns" data-name="24-Crowns"><rect fill="#fadf7d" height="6" rx="2" width="42" x="11" y="48"/><path d="m51 52h-38a2.006 2.006 0 0 1 -2-2v2a2.006 2.006 0 0 0 2 2h38a2.006 2.006 0 0 0 2-2v-2a2.006 2.006 0 0 1 -2 2z" fill="#ffbf40"/><path d="m7.19 21.35a4 4 0 1 1 1.81-3.35 4 4 0 0 1 -1.81 3.35z" fill="#ffc608"/><path d="m34.03 17.44a3.959 3.959 0 0 1 -4.06 0 4 4 0 1 1 4.06 0z" fill="#ffc608"/><path d="m59 22a4 4 0 1 1 4-4 4 4 0 0 1 -4 4z" fill="#ffc608"/><path d="m48 22.82a2.772 2.772 0 0 1 -1 .18 2.944 2.944 0 0 1 -1.26-.28 3.007 3.007 0 1 1 2.26.1z" fill="#ff9c00"/><path d="m18.26 22.72a2.944 2.944 0 0 1 -1.26.28 2.772 2.772 0 0 1 -1-.18 2.992 2.992 0 1 1 2.26-.1z" fill="#ff9c00"/><path d="m25.74 34.78c-1.21 1.93-2.76 3.22-4.74 3.22-1.44 0-3.21-1.41-5-3.42v-11.76a2.772 2.772 0 0 0 1 .18 2.944 2.944 0 0 0 1.26-.28c.81 2.17 3.48 8.68 7.48 12.06z" fill="#fa0"/><path d="m48 22.82v11.76c-1.79 2.01-3.56 3.42-5 3.42-1.98 0-3.53-1.29-4.74-3.22 4-3.38 6.67-9.89 7.48-12.06a2.944 2.944 0 0 0 1.26.28 2.772 2.772 0 0 0 1-.18z" fill="#fa0"/><path d="m34.07 44.78a1.078 1.078 0 0 0 1.71-1.06l-.53-2.58 1.41-1.38a1.029 1.029 0 0 0 -.72-1.76h-1.95l-1.02-2.4a1.084 1.084 0 0 0 -1.94 0l-1.02 2.4h-1.95a1.029 1.029 0 0 0 -.72 1.76l1.41 1.38-.53 2.58a1.078 1.078 0 0 0 1.71 1.06l2.07-1.52zm13.93-10.2c3.9-4.36 7.91-11.57 8.81-13.23a4 4 0 0 0 2.19.65l-8 22v4h-38v-4l-8-22a4 4 0 0 0 2.19-.65c.9 1.66 4.91 8.87 8.81 13.23 1.79 2.01 3.56 3.42 5 3.42 1.98 0 3.53-1.29 4.74-3.22 3.27-5.21 4.09-15.14 4.23-17.34a3.959 3.959 0 0 0 4.06 0c.14 2.2.96 12.13 4.23 17.34 1.21 1.93 2.76 3.22 4.74 3.22 1.44 0 3.21-1.41 5-3.42z" fill="#fadf7d"/><path d="m32.97 35.6 1.02 2.4h1.95a1.029 1.029 0 0 1 .72 1.76l-1.41 1.38.53 2.58a1.078 1.078 0 0 1 -1.71 1.06l-2.07-1.52-2.07 1.52a1.078 1.078 0 0 1 -1.71-1.06l.53-2.58-1.41-1.38a1.029 1.029 0 0 1 .72-1.76h1.95l1.02-2.4a1.084 1.084 0 0 1 1.94 0z" fill="#d1013e"/><path d="m34.03 15.44a3.959 3.959 0 0 1 -4.06 0 3.974 3.974 0 0 1 -1.836-2.417 3.919 3.919 0 0 0 1.836 4.417 3.959 3.959 0 0 0 4.06 0 3.919 3.919 0 0 0 1.836-4.417 3.974 3.974 0 0 1 -1.836 2.417z" fill="#fa0"/><path d="m61.03 19.44a3.959 3.959 0 0 1 -4.06 0 3.974 3.974 0 0 1 -1.836-2.417 3.919 3.919 0 0 0 1.836 4.417 3.959 3.959 0 0 0 4.06 0 3.919 3.919 0 0 0 1.836-4.417 3.974 3.974 0 0 1 -1.836 2.417z" fill="#fa0"/><path d="m7.03 19.44a3.959 3.959 0 0 1 -4.06 0 3.974 3.974 0 0 1 -1.836-2.417 3.919 3.919 0 0 0 1.836 4.417 3.959 3.959 0 0 0 4.06 0 3.919 3.919 0 0 0 1.836-4.417 3.974 3.974 0 0 1 -1.836 2.417z" fill="#fa0"/><path d="m18.26 20.72a2.944 2.944 0 0 1 -1.26.28 2.772 2.772 0 0 1 -1-.18 2.956 2.956 0 0 1 -1.821-1.808 3 3 0 0 0 -.179.988 2.968 2.968 0 0 0 2 2.82 2.772 2.772 0 0 0 1 .18 2.944 2.944 0 0 0 1.26-.28 2.957 2.957 0 0 0 1.56-3.711 2.975 2.975 0 0 1 -1.56 1.711z" fill="#de8800"/><path d="m48.26 20.72a2.944 2.944 0 0 1 -1.26.28 2.772 2.772 0 0 1 -1-.18 2.956 2.956 0 0 1 -1.821-1.808 3 3 0 0 0 -.179.988 2.968 2.968 0 0 0 2 2.82 2.772 2.772 0 0 0 1 .18 2.944 2.944 0 0 0 1.26-.28 2.957 2.957 0 0 0 1.56-3.711 2.975 2.975 0 0 1 -1.56 1.711z" fill="#de8800"/><path d="m18.014 34.66a1.992 1.992 0 0 1 -1.014-1.742v-5.918a2 2 0 0 1 2-2h.189c-.417-.948-.73-1.746-.929-2.28a2.944 2.944 0 0 1 -1.26.28 2.772 2.772 0 0 1 -1-.18v11.76c1.79 2.01 3.56 3.42 5 3.42 1.98 0 3.53-1.29 4.74-3.22-.1-.087-.2-.184-.3-.275-2.768 2.227-5.867 1.032-7.426.155z" fill="#ff9c00"/><path d="m47 23a2.944 2.944 0 0 1 -1.26-.28c-.2.534-.512 1.332-.929 2.28h.189a2 2 0 0 1 2 2v5.918a1.992 1.992 0 0 1 -1.014 1.742c-1.559.877-4.655 2.065-7.42-.158-.1.092-.2.19-.306.278 1.21 1.93 2.76 3.22 4.74 3.22 1.44 0 3.21-1.41 5-3.42v-11.76a2.772 2.772 0 0 1 -1 .18z" fill="#ff9c00"/><g fill="#ffbf40"><path d="m56.608 24.77a1.006 1.006 0 0 1 1.206-.5l.321.107.865-2.377a4 4 0 0 1 -2.19-.65c-.9 1.66-4.91 8.87-8.81 13.23-1.561 1.753-3.106 3.048-4.431 3.351 1.758-.324 7.353-2.207 13.039-13.161z"/><path d="m34.07 44.78-1.062-.78h-2.016l-1.062.78a1.08 1.08 0 0 1 -1.723-.78h-9.207a3 3 0 0 1 -3-3l-8.223-15.532a1 1 0 0 1 .884-1.468h.025c-.706-1.211-1.235-2.168-1.5-2.65a4 4 0 0 1 -2.186.65l8 22v4h38v-4h-15.207a1.08 1.08 0 0 1 -1.723.78z"/><path d="m30.92 21.872a2 2 0 0 1 2-1.872h1.338c-.123-1.15-.192-2.061-.224-2.56a3.959 3.959 0 0 1 -4.06 0c-.14 2.2-.96 12.13-4.23 17.34-1.214 1.93-2.764 3.22-4.744 3.22 8 0 9.6-11.52 9.92-16.128z"/></g><path d="m37.812 38.258a2.014 2.014 0 0 0 -1.872-1.258h-1.289l-.761-1.792q-.012-.028-.027-.057a2.071 2.071 0 0 0 -1.863-1.151 2.094 2.094 0 0 0 -1.89 1.208l-.761 1.792h-1.289a2.029 2.029 0 0 0 -1.419 3.475l1.019 1-.419 2.043a2.039 2.039 0 0 0 .912 2.15 2.1 2.1 0 0 0 1.13.333 2.063 2.063 0 0 0 1.238-.413l1.479-1.088 1.472 1.082a2.072 2.072 0 0 0 2.375.084 2.039 2.039 0 0 0 .913-2.147l-.42-2.046 1.022-1a2.02 2.02 0 0 0 .45-2.215zm-1.152 1.5-1.41 1.38.53 2.58a1.078 1.078 0 0 1 -1.71 1.06l-2.07-1.518-2.07 1.52a1.078 1.078 0 0 1 -1.71-1.06l.53-2.58-1.41-1.38a1.029 1.029 0 0 1 .72-1.76h1.95l1.02-2.4a1.084 1.084 0 0 1 1.94 0l1.02 2.4h1.95a1.029 1.029 0 0 1 .72 1.76z" fill="#ff9c00"/><circle cx="48" cy="19" fill="#ffc608" r="1"/><circle cx="18" cy="19" fill="#ffc608" r="1"/><circle cx="33" cy="13" fill="#fffced" r="1"/><circle cx="61" cy="17" fill="#fffced" r="1"/><circle cx="7" cy="17" fill="#fffced" r="1"/></g></svg>