<svg xmlns="http://www.w3.org/2000/svg" width="20" height="20" viewBox="0 0 20 20">
  <g id="ranking" transform="translate(-1 -0.975)">
    <g id="Group_46573" data-name="Group 46573" transform="translate(1 15.162)">
      <g id="Group_46572" data-name="Group 46572">
        <path id="Path_75519" data-name="Path 75519" d="M6.125,29.512h-4.5A.672.672,0,0,1,1,28.887V24.325a.626.626,0,0,1,.625-.625H6v5.187A2.221,2.221,0,0,0,6.125,29.512Z" transform="translate(-1 -23.7)" fill="#616161"/>
      </g>
    </g>
    <g id="Group_46575" data-name="Group 46575" transform="translate(7.25 12.225)">
      <g id="Group_46574" data-name="Group 46574">
        <path id="Path_75520" data-name="Path 75520" d="M18.5,19.625v7.5a.672.672,0,0,1-.625.625h-6.25A.672.672,0,0,1,11,27.125v-7.5A.626.626,0,0,1,11.625,19h6.25A.626.626,0,0,1,18.5,19.625Z" transform="translate(-11 -19)" fill="#616161"/>
      </g>
    </g>
    <g id="Group_46577" data-name="Group 46577" transform="translate(15.875 15.975)">
      <g id="Group_46576" data-name="Group 46576">
        <path id="Path_75521" data-name="Path 75521" d="M29.925,25.625v3.75A.672.672,0,0,1,29.3,30H24.8a2.221,2.221,0,0,0,.125-.625V25H29.3A.626.626,0,0,1,29.925,25.625Z" transform="translate(-24.8 -25)" fill="#616161"/>
      </g>
    </g>
    <g id="Group_46579" data-name="Group 46579" transform="translate(5.788 0.975)">
      <g id="Group_46578" data-name="Group 46578">
        <path id="Path_75522" data-name="Path 75522" d="M18.935,5.366l-2.062,2,.5,2.875a.594.594,0,0,1-.25.625.885.885,0,0,1-.687.063L13.873,9.553,11.31,10.866a.481.481,0,0,1-.625-.062.594.594,0,0,1-.25-.625l.5-2.875L8.81,5.366a.683.683,0,0,1-.125-.625.606.606,0,0,1,.5-.437l2.875-.437L13.31,1.3a.646.646,0,0,1,1.125,0l1.25,2.562L18.56,4.3a.606.606,0,0,1,.5.438.683.683,0,0,1-.125.625Z" transform="translate(-8.661 -0.975)" fill="#616161"/>
      </g>
    </g>
  </g>
</svg>
