<svg xmlns="http://www.w3.org/2000/svg" width="16" height="16" viewBox="0 0 16 16">
  <g id="quiz" transform="translate(0 0)">
    <path id="Path_75510" data-name="Path 75510" d="M171,380.844a1.406,1.406,0,0,0,1.406,1.406h2.5a1.406,1.406,0,0,0,1.406-1.406V380H171Z" transform="translate(-165.656 -368.125)" fill="#007aff"/>
    <path id="Path_75511" data-name="Path 75511" d="M201.938,482.938H203.5a.937.937,0,0,0,.938-.937H201A.937.937,0,0,0,201.938,482.938Z" transform="translate(-194.719 -466.938)" fill="#007aff"/>
    <path id="Path_75512" data-name="Path 75512" d="M453.406,150h-.937a.469.469,0,0,0,0,.938h.938a.469.469,0,0,0,0-.937Z" transform="translate(-437.875 -145.313)" fill="#007aff"/>
    <path id="Path_75513" data-name="Path 75513" d="M1.406,150.938a.469.469,0,0,0,0-.937H.469a.469.469,0,1,0,0,.938Z" transform="translate(0 -145.313)" fill="#007aff"/>
    <path id="Path_75514" data-name="Path 75514" d="M439.961,69.14l.881-.321a.469.469,0,1,0-.321-.881l-.881.321a.469.469,0,1,0,.321.881Z" transform="translate(-425.602 -65.788)" fill="#007aff"/>
    <path id="Path_75515" data-name="Path 75515" d="M15.66,221.849l-.881.321a.469.469,0,0,0,.321.881l.881-.321a.469.469,0,0,0-.321-.881Z" transform="translate(-14.018 -214.889)" fill="#007aff"/>
    <path id="Path_75516" data-name="Path 75516" d="M440.842,222.169l-.881-.321a.469.469,0,0,0-.321.881l.881.321a.469.469,0,1,0,.321-.881Z" transform="translate(-425.603 -214.889)" fill="#007aff"/>
    <path id="Path_75517" data-name="Path 75517" d="M15.979,68.26,15.1,67.94a.469.469,0,0,0-.321.881l.881.321a.469.469,0,0,0,.321-.881Z" transform="translate(-14.017 -65.789)" fill="#007aff"/>
    <path id="Path_75518" data-name="Path 75518" d="M96.156,0a5.156,5.156,0,0,0-3.739,8.706,3.913,3.913,0,0,1,1.055,2.231h5.369A3.913,3.913,0,0,1,99.9,8.706,5.156,5.156,0,0,0,96.156,0Zm0,8.125a.469.469,0,1,1,.469-.469A.469.469,0,0,1,96.156,8.125Zm.71-3a.447.447,0,0,0-.241.362v.3a.469.469,0,0,1-.937,0v-.3a1.363,1.363,0,0,1,.705-1.171.469.469,0,1,0-.705-.405.469.469,0,0,1-.937,0A1.406,1.406,0,1,1,96.866,5.12Z" transform="translate(-88.156)" fill="#007aff"/>
  </g>
</svg>
