<svg clip-rule="evenodd" fill-rule="evenodd" height="2048" image-rendering="optimizeQuality" shape-rendering="geometricPrecision" text-rendering="geometricPrecision" viewBox="0 0 2048 2048" width="2048" xmlns="http://www.w3.org/2000/svg"><g id="Layer_x0020_1"><path d="m255.999 256h1536v1536h-1536z" fill="none"/><g fill="#424242"><path d="m1509.28 939.144h-103.465l-91.1174 149.102-90.7264-149.102h-107.726s-249.161-3.23977-267.206 211.686v28.1303l-97.3324-66.5186-11.361-7.93347c-96.8292-75.0886-190.904 45.2103-118.017 118.082.154725.154725 54.0556 36.6555 54.0556 36.6555l75.2646 50.289 143.133 95.3186c48.3839 29.9339 119.512-10.7693 119.512-72.9898v-147.173h73.8662l-.16063 352.475h448.001l-.173622-350.325h79.2851v282.288c0 109.26 165.171 108.889 165.171 0v-318.377c.0696851 0 10.0772-206.406-271.004-211.609z"/><path d="m1464.06 826.655c-38.5536 38.5595-91.382 62.413-149.345 62.413-57.9591 0-110.808-23.8583-149.376-62.4237-40.2166-40.2118-65.1024-96.3107-65.1024-158.757 0-62.4579 24.8811-118.549 65.093-158.752 38.5701-38.5642 91.4233-62.4142 149.386-62.4142 57.9662 0 110.8 23.8465 149.355 62.4048 40.2024 40.2059 65.0717 96.3001 65.0717 158.762 0 62.4473-24.8729 118.551-65.0823 158.767z" fill-rule="nonzero"/><path d="m222.782 773.471 385.223 302.679-26.662 54.25-385.223-302.678z" fill-rule="nonzero"/></g></g></svg>