<svg clip-rule="evenodd" fill-rule="evenodd" stroke-linejoin="round" stroke-miterlimit="2" viewBox="0 0 510 510" xmlns="http://www.w3.org/2000/svg"><path d="m118.615 242.509c.764 4.349-2.146 8.499-6.495 9.263s-8.499-2.146-9.263-6.495c-1.98-11.27-3.013-22.865-3.013-34.699 0-110.15 89.428-199.578 199.578-199.578s199.578 89.428 199.578 199.578c0 89.671-59.267 165.608-140.732 190.744-4.219 1.302-8.701-1.066-10.003-5.285s1.067-8.702 5.286-10.003c74.934-23.122 129.449-92.973 129.449-175.456 0-101.32-82.258-183.578-183.578-183.578-101.319 0-183.578 82.258-183.578 183.578 0 10.89.95 21.56 2.771 31.931zm152.247 67.603-7.549-.001v-34.825c0-11.115-5.464-20.649-15.07-26.285-9.608-5.638-20.566-5.747-30.334-.268l-.014.008c-10.516 5.913-21.616 12.538-33.187 19.092 20.757-42.415 64.326-71.626 114.714-71.626 63.486 0 116.126 46.323 126.005 107 .266 1.73-.238 3.489-1.378 4.817s-2.803 2.092-4.553 2.092c-13.95 0-47.61 0-85.741-.001 5.408-9.198 4.166-21.238-3.727-29.131-9.366-9.366-24.574-9.366-33.941 0l-19.274 19.275c-2.853 2.852-4.836 6.247-5.951 9.853zm28.56-123.905c-35.541 0-64.512-29.005-64.512-64.546s28.971-64.546 64.512-64.546c35.575 0 64.546 29.005 64.546 64.546s-28.971 64.546-64.546 64.546zm-36.109 203.748v-52.887c10.791 3.936 18.496 14.29 18.496 26.443 0 12.154-7.705 22.508-18.496 26.444zm-189.963 38.139h35.344v70.906h-9.166c-14.409 0-26.178-11.768-26.178-26.177zm119.074 16.056c-21.24-12.023-43.674-22.563-68.072-28.754.224-1.065.342-2.17.342-3.302v-95.279c0-1.364-.171-2.688-.492-3.952 23.845-7.193 46.826-19.052 68.222-31.103zm54.889 7.587c0 5.432-2.754 10.072-7.506 12.674-4.753 2.603-10.109 2.452-14.711-.452-5.507-3.471-11.052-6.979-16.672-10.411v-180.941c5.922-3.432 11.731-6.751 17.313-9.92 4.64-2.602 9.845-2.565 14.409.113s7.167 7.205 7.167 12.486zm-138.619-39.643h-50.054c-26.215 0-47.64-21.462-47.64-47.64 0-26.177 21.425-47.639 47.64-47.639h50.054zm190.746-89.208c-3.122 3.123-8.192 3.123-11.314 0-3.122-3.122-3.122-8.191 0-11.313l19.275-19.275c3.122-3.122 8.192-3.122 11.314 0s3.122 8.192 0 11.314zm-11.508 92.747c-3.119-3.125-3.114-8.194.011-11.313s8.195-3.115 11.314.011l19.275 19.312c3.119 3.125 3.114 8.195-.011 11.314-3.126 3.119-8.195 3.114-11.314-.011zm24.937-43.971c-4.415 0-8-3.584-8-8 0-4.415 3.585-8 8-8h27.309c4.416 0 8 3.585 8 8 0 4.416-3.584 8-8 8z"/></svg>