<svg id="Layer_1" enable-background="new 0 0 160 160" viewBox="0 0 160 160" xmlns="http://www.w3.org/2000/svg"><g><path d="m151 80.4v26.3l-27.3 16.1v-36.5c0-6.4-3.3-12.3-8.5-15.7l3.6-1c.5-.1.9-.6.9-1.1v-4.9l-.3-.2c-2.1-1.6-3.5-4.1-3.7-6.7-.1-.9-.2-1.7-.2-2h-.8c-.8 0-1.5-.6-1.6-1.3l-.6-4c-.2-1.2.8-2.3 2-2.3l.2-7.7c0-4.7 3.9-8.5 8.7-8.5h5.6c4.8 0 8.7 3.8 8.7 8.5l.3 7.6c1.2 0 2.2 1.1 2 2.3l-.6 4c-.1.8-.8 1.3-1.6 1.3h-.8c-.1.4-.1 1.2-.2 2-.2 2.6-1.6 5.1-3.7 6.7l-.3.2v4.9c0 .5.4 1 .9 1.1l11.2 3.2c3.5.8 6.1 4 6.1 7.7z"/><path d="m47.5 49.2-.6 4c-.1.8-.8 1.3-1.6 1.3h-.8c-.1.4-.1 1.2-.2 2-.2 2.6-1.6 5.1-3.7 6.7l-.3.2v4.8c0 .5.4 1 .9 1.1l2.6.8c-5.4 3.3-9 9.4-9 16.1v35.5l-25.8-15.1v-26.3c0-3.7 2.6-6.9 6.1-7.6l7.1-2 4.1-1.2c.5-.1.9-.6.9-1.1v-4.8l-.2-.3c-2.1-1.6-3.5-4.1-3.7-6.7-.1-.9-.1-1.6-.2-2h-.8c-.8 0-1.5-.6-1.6-1.3l-.6-4c-.3-1.3.7-2.3 1.9-2.3l.2-7.7c0-4.7 3.9-8.6 8.7-8.6h5.6c4.8 0 8.7 3.8 8.7 8.6l.2 7.7c1.3 0 2.2 1 2.1 2.2z"/><path d="m108.4 70.9-15.3-4.4v-3.8c3.4-3.1 5.5-7.3 5.9-11.9 2.1-.8 3.6-2.7 4-5l1-6.1c.3-2-.3-4.1-1.6-5.6-.4-.5-.9-.9-1.4-1.3l-.2-8.9c0-9.3-7.7-16.9-17.2-16.9h-8.6c-9.5 0-17.2 7.6-17.2 16.9l-.3 9.1c-.5.3-1 .8-1.4 1.3-1.3 1.5-1.9 3.6-1.6 5.6l1 6.1c.4 2.3 1.9 4.1 4 5 .4 4.6 2.6 8.8 5.9 11.9v3.8l-4.7 1.3-10.6 3c-7.1 1.5-12.3 8-12.3 15.4v41.9l2 1.2 39.7 23.4 39.3-22.5 2-1.1v-43c-.1-7.4-5.3-13.8-12.4-15.4zm-40.6 53.9h-6v-20h6zm1.2-64.2c-3.2-2.5-5.2-6.2-5.6-10.2-.1-1.3-.2-2.5-.3-3.1h-1.3c-1.2 0-2.2-.9-2.4-2l-1-6.1c-.3-1.7 1-3.2 2.7-3.4v1.5c0 1 1.2 1.4 1.8.6l1.4-1.8c2.3-3.1 3.8-6.8 4.2-10.6.2-1.4 1-2.7 2.2-3.5 1-.7 1.9-1.6 2.5-2.8l.1-.1c2.5 2.6 6 4.1 9.6 4.1 1.8 0 3.5.6 4.8 1.6 1.4 1 2.4 2.4 2.9 4.1.7 2.5 1.8 4.9 3.4 7l1.5 2c.6.8 1.8.4 1.8-.6v-1.5c1.7.2 2.9 1.7 2.7 3.4l-1 6.1c-.2 1.2-1.2 2-2.4 2h-1.3c-.1.6-.2 1.8-.3 3.1-.3 4-2.4 7.7-5.6 10.2l-.4.3v7.3.2l-9.7 5.9-10-5.9c0-.1 0-.1 0-.2v-7.3zm26.6 58.5c-.2 1.1-.8 2-1.5 2.8-1.1 1.1-2.6 1.7-4.1 1.7h-13.8c-1.9 0-3.8-.4-5.5-1.2v-16.3l4.3-4.3c1.2-1.2 2.1-2.6 2.7-4.1.6-1.5.9-3.2.9-4.8 0-1.5 0-3 0-3l1-.6c.3-.2.5-.3.8-.3.2 0 .4-.1.5-.1.7 0 1.4.3 2 .9.8.8 1.3 1.9 1.3 3v.2c.1 2.7-.1 5.4-.6 8.1l-.3 1.8h11.6c.5 0 1 .1 1.5.4 1 .6 1.7 1.7 1.7 2.9.2.7-1.7 9.3-2.5 12.9z"/></g></svg>