<svg fill="none" height="512" viewBox="0 0 128 128" width="512" xmlns="http://www.w3.org/2000/svg"><path clip-rule="evenodd" d="m36.8563 39c-5.1612 0-9.4745 3.9279-9.9563 9.0666l-.9398 10.0251c-.9067 9.6713 5.5282 18.2079 14.5398 20.3774v20.561l-3.5036 1.2689c-5.2642 1.906-3.8963 9.701 1.7024 9.701h11.6024c5.5987 0 6.9666-7.795 1.7024-9.701l-3.5036-1.2689v-20.3486c9.5306-1.7583 16.4797-10.5644 15.5398-20.5898l-.9398-10.0251c-.4818-5.1387-4.7951-9.0666-9.9564-9.0666z" fill="#944700" fill-rule="evenodd"/><path d="m44.0442 80.4043h-.1452c-.1947 0-.3526-.1579-.3526-.3526 0-3.8946-3.1571-7.0517-7.0516-7.0517h-.3964c-2.586 0-4.9869 1.3414-6.3425 3.5435l-2.1596 3.5082c-.1349.2191-.3738.3526-.6311.3526h-11.9652c-.5523 0-1 .4477-1 1v15.8131c0 .5523.4477 1 1 1h12.0972c.1822 0 .3588.0637.4991.1801 2.8054 2.3285 6.3364 3.6025 9.9821 3.6025h5.6237c5.9635 0 10.7979-4.8344 10.7979-10.7979v-.8421c0-5.4984-4.4574-9.9557-9.9558-9.9557z" fill="#ffba33"/><path clip-rule="evenodd" d="m91.1437 39c5.1612 0 9.4743 3.9279 9.9563 9.0666l.94 10.0251c.907 9.6713-5.5284 18.2079-14.54 20.3774v20.561l3.5036 1.2689c5.2642 1.906 3.8963 9.701-1.7024 9.701h-11.6024c-5.5987 0-6.9666-7.795-1.7024-9.701l3.5036-1.2689v-20.3486c-9.5306-1.7583-16.4797-10.5644-15.5398-20.5898l.9398-10.0251c.4818-5.1387 4.7951-9.0666 9.9564-9.0666z" fill="#743800" fill-rule="evenodd"/><g fill="#ffba33"><path d="m83.9558 80.4043h.1452c.1947 0 .3526-.1579.3526-.3526 0-3.8946 3.1571-7.0517 7.0516-7.0517h.3964c2.586 0 4.9869 1.3414 6.3425 3.5435l2.1599 3.5082c.135.2191.374.3526.631.3526h11.965c.552 0 1 .4477 1 1v15.8131c0 .5523-.448 1-1 1h-12.097c-.182 0-.359.0637-.499.1801-2.8057 2.3285-6.3367 3.6025-9.9824 3.6025h-5.6237c-5.9635 0-10.7979-4.8344-10.7979-10.7979v-.8421c0-5.4984 4.4574-9.9557 9.9558-9.9557z"/><path clip-rule="evenodd" d="m56.743 25.5298c-1.4128.9267-1.4784 3.1426-.0715 4.0784 2.3247 1.5462 3.9208 3.1691 5.2819 5.3535.9191 1.4749 3.2263 1.5 4.1405.022 1.4254-2.3043 2.9902-3.9394 5.1789-5.4008 1.4106-.9418 1.3816-3.1678-.0341-4.1018-2.1518-1.4197-3.7364-3.1096-5.2514-5.6398-.8758-1.4627-3.1035-1.4665-3.9751-.0013-1.4975 2.5171-3.0682 4.2463-5.2692 5.6898z" fill-rule="evenodd"/></g></svg>