<svg clip-rule="evenodd" fill-rule="evenodd" height="1.707in" image-rendering="optimizeQuality" shape-rendering="geometricPrecision" text-rendering="geometricPrecision" viewBox="0 0 1707 1707" width="1.707in" xmlns="http://www.w3.org/2000/svg"><g id="Layer_x0020_1"><path d="m788 644c-15 0-25-16-17-30l131-226c2-5 6-8 10-9l189-69 81-141c14-23 48-3 35 19l258 149c13-22 48-2 35 21l-71 123 68 200c2 5 1 11-2 16l-156 271c-7 13-29 51-61 51-42 0-61-57-74-114-14 25-24 52-42 52-14 0-23-14-19-27l-354-289c-3 2-7 3-11 3z" fill="#cccccd"/><path d="m419 1019c-32 0-54-38-62-51l-156-271c-3-5-3-11-1-16l68-200-71-123c-13-23 20-42 34-22l258-149c-11-22 22-41 35-18l82 141 189 69c4 1 8 4 10 9l66 114c7 12-1 27-14 29l-58 422-247-7c-8 14-27 14-35 1l-24-42c-14 57-33 114-74 114z" fill="#cccccd"/><path d="m701 1567c-12 0-20-9-20-20v-142l-160-139c-4-4-7-10-7-16v-312c0-16 0-65 34-78 35-13 76 24 115 65v-258c0-84 99-102 142-55 44-47 143-29 143 55v27c47-25 118-3 122 65 48-25 122-2 122 70v284c0 27 5 106-4 117l-130 153v164c0 21-29 28-38 8h-301c-4 7-10 12-18 12z" fill="#dbdbdc"/><path d="m1108 1707h-477c-23 0-41-19-41-41v-98c0-23 18-41 41-41h477c23 0 41 18 41 41v98c0 22-18 41-41 41z" fill="#d3d3d3"/><path d="m1563 405c-7 0-14-2-20-5l-414-239c-19-11-26-36-15-56l49-85c12-19 37-26 56-14l414 238c19 12 26 37 15 56l-49 85c-8 13-21 20-36 20z" fill="#b9b9b9"/><path d="m143 405c-14 0-28-7-35-20l-49-85c-11-19-5-44 15-56l414-238c19-12 44-5 55 14l49 85c12 20 5 45-15 56l-413 239c-6 3-13 5-21 5z" fill="#919191"/></g></svg>