<?xml version="1.0" encoding="UTF-8"?>
<svg id="Layer_1" xmlns="http://www.w3.org/2000/svg" version="1.1" viewBox="0 0 500 500">
  <!-- Generator: Adobe Illustrator 29.7.1, SVG Export Plug-In . SVG Version: 2.1.1 Build 8)  -->
  <defs>
    <style>
      .st0 {
        fill: #006ac9;
      }

      .st1, .st2, .st3, .st4, .st5, .st6, .st7, .st8, .st9, .st10 {
        fill: none;
      }

      .st1, .st2, .st3, .st7, .st8, .st9, .st10 {
        stroke-linecap: round;
        stroke-linejoin: round;
      }

      .st1, .st2, .st5, .st6 {
        stroke: #bbbfbd;
      }

      .st11 {
        fill: #649176;
      }

      .st12 {
        fill: #007aff;
      }

      .st13 {
        fill: #f3f5f4;
      }

      .st14 {
        fill: #c1966b;
      }

      .st2 {
        stroke-width: 1px;
      }

      .st15, .st16 {
        fill: #fff;
      }

      .st3 {
        stroke: #847062;
      }

      .st16 {
        isolation: isolate;
      }

      .st16, .st17 {
        font-family: ArialMT, Arial;
        font-size: 35.62px;
      }

      .st18 {
        fill: #ff996a;
      }

      .st5 {
        stroke-miterlimit: 10;
      }

      .st19 {
        fill: #d37a57;
      }

      .st6 {
        stroke-miterlimit: 10;
        stroke-width: 1px;
      }

      .st17, .st20 {
        fill: #2b97f9;
      }

      .st21 {
        fill: #55abf9;
      }

      .st22 {
        fill: #ffd294;
      }

      .st7 {
        stroke: #9c897a;
      }

      .st23 {
        fill: #3f2d1f;
      }

      .st24 {
        fill: #847062;
      }

      .st8 {
        stroke: #fff;
      }

      .st25 {
        fill: #9c897a;
      }

      .st26 {
        fill: #7eaf92;
      }

      .st27 {
        fill: #e5bc89;
      }

      .st9 {
        stroke: #e5bc89;
      }

      .st28 {
        fill: #d9d9d9;
      }

      .st29 {
        fill: #d3aa7d;
      }

      .st10 {
        stroke: #543e2f;
      }
    </style>
  </defs>
  <g id="OBJECT">
    <g>
      <g>
        <path class="st13" d="M232.16,118.59s-56.47,2.49-86.38,61.53c-29.91,59.04-60.8,40.61-79.04,93.87-18.24,53.26,18.54,113.82,43.2,120.39,24.65,6.56,306.27,0,306.27,0,0,0,37.21-25.44,40.13-91.52,2.92-66.08-52.53-88.15-75.51-97.54-22.98-9.39-58.4-88.19-148.67-86.73Z"/>
        <path class="st5" d="M313.07,280.06c65.05-43.76,77.66-66.24,109.76-70.42,78.2-10.18,20.9,191.96-158.16,235.15-85.08,20.52-190.47-35.45-205.54-78.94-14.57-42.05,24.66-57.82,82.59-35.27,57.93,22.55,138.21-28.23,171.35-50.53Z"/>
        <circle class="st28" cx="382.1" cy="230.14" r="9.9" transform="translate(-45.62 356.71) rotate(-47.55)"/>
        <circle class="st6" cx="378.11" cy="424.76" r="9.9"/>
        <circle class="st5" cx="249.12" cy="199.47" r="9.9"/>
        <polygon class="st1" points="221.1 239.04 211.05 253.02 230.14 253.02 221.1 239.04"/>
        <polygon class="st28" points="173.89 416.68 167.57 428.84 186.66 428.84 173.89 416.68"/>
        <g>
          <circle class="st2" cx="61.86" cy="262.83" r="18.89" transform="translate(-208.15 262.64) rotate(-76.71)"/>
          <text class="st17" transform="translate(54.56 276.66)"><tspan x="0" y="0">?</tspan></text>
        </g>
        <g>
          <circle class="st20" cx="256.43" cy="124.69" r="18.89" transform="translate(-24.51 173.48) rotate(-35.78)"/>
          <text class="st16" transform="translate(249.12 138.54)"><tspan x="0" y="0">?</tspan></text>
        </g>
      </g>
      <circle class="st28" cx="111" cy="270.71" r="9.52" transform="translate(-177.92 316.83) rotate(-76.77)"/>
    </g>
    <g>
      <g>
        <line class="st4" x1="364.19" y1="129.82" x2="445.64" y2="129.82"/>
        <path class="st20" d="M448.1,100.65h-85.15c-4.86,0-8.8,3.94-8.8,8.8v51.25c0,4.86,3.94,8.8,8.8,8.8h17.33l-3.44,8.88c-.99,2.57,1.98,4.85,4.2,3.22l16.46-12.1h50.6c4.86,0,8.8-3.94,8.8-8.8v-51.25c0-4.86-3.94-8.8-8.8-8.8Z"/>
        <line class="st8" x1="364.19" y1="115.02" x2="445.64" y2="115.02"/>
        <line class="st8" x1="364.19" y1="122.42" x2="445.64" y2="122.42"/>
        <line class="st8" x1="364.19" y1="129.82" x2="445.64" y2="129.82"/>
        <line class="st8" x1="364.19" y1="137.21" x2="445.64" y2="137.21"/>
        <line class="st8" x1="364.19" y1="144.61" x2="445.64" y2="144.61"/>
        <line class="st8" x1="364.19" y1="152.01" x2="445.64" y2="152.01"/>
      </g>
      <g>
        <path class="st18" d="M181.84,263.57s-.87-7.28-1.99-10.75c-1.13-3.47-5.89-10.05-5.89-10.05,0,0-1.91,4.07.87,7.45,0,0-.17,5.37.09,7.28,0,0-9.01-7.7-10.74-8.48h0c-1.1-.88-2.44-1.95-4.08-3.25-5.98-4.77-9.96-3.29-9.45-2.95.36.24,7.2,5.77,11.43,9.2l-.55.79c-1.29-1.03-3.33-2.66-6.37-5.08-5.98-4.77-9.97-3.29-9.45-2.95.43.29,10.44,8.4,13.71,11.04l-.96,1.38c-1.27-1.01-3.37-2.69-6.59-5.26-5.98-4.77-9.96-3.29-9.45-2.95.45.3,10.93,8.79,13.93,11.22l-1.02,1.46c-1.11-1.01-4.21-3.76-7.19-5.84-3.73-2.6-6.41-1.39-6.41-1.39l1.65,1.47c1.65,1.47,10.23,8.23,10.23,8.23,0,0,13.1,11.7,16.38,12.83l3.21,3.06,11.79-12.77-3.13-3.73Z"/>
        <path class="st29" d="M276.13,344.38c-7.03,10.14-16.87,16.4-29.95,13.74-35.02-7.12-76.37-75.09-76.37-75.09l2.08-2.25,15.43-16.7,53.71,48.81,16.77-24.28,16.38-23.71,8.1-11.72s4.74,7.5,7.73,31.33c1.86,14.94-2.07,42.86-13.89,59.87Z"/>
        <path class="st14" d="M276.13,344.38c-7.03,10.14-16.87,16.4-29.95,13.74-35.02-7.12-76.37-75.09-76.37-75.09l2.08-2.25,1.28-.71s49.27,67.79,70.04,57.7c12.84-6.23,14.9-31.08,14.6-49.16l16.38-23.71,1.93,79.49Z"/>
        <polygon class="st12" points="407.67 337.76 404.47 393.95 392.1 393.95 396.96 337.76 407.67 337.76"/>
        <polygon class="st11" points="331.93 337.76 328.74 393.95 316.36 393.95 321.23 337.76 331.93 337.76"/>
        <path class="st12" d="M408.93,347.49h-98.03c-9.74,0-17.64-7.9-17.64-17.64v-54.84c0-9.74,7.9-17.64,17.64-17.64h98.03c9.74,0,17.64,7.9,17.64,17.64v54.84c0,9.74-7.9,17.64-17.64,17.64Z"/>
        <path class="st20" d="M400.66,347.49h-98.03c-9.74,0-17.64-7.9-17.64-17.64v-54.84c0-9.74,7.9-17.64,17.64-17.64h98.03c9.74,0,17.64,7.9,17.64,17.64v54.84c0,9.74-7.9,17.64-17.64,17.64Z"/>
        <path class="st22" d="M326.77,232.07s19.33-3.1,45.35,23.8l6,138.08h-108.71s-11.87-93.15,1.97-126.28c13.84-33.13,38.69-37.08,55.4-35.6Z"/>
        <path class="st18" d="M288.85,157.18l4.77-6.54,40.69,13.62-.35,15.28h2.69c5.46,0,9.88,4.42,9.88,9.88h0c0,5.46-4.42,9.88-9.88,9.88h-3.14l-.48,20.74v18.23l-29.46,4.05-.72-12.19-.38-6.41-4.27-2.04c-12.24-5.84-20.03-18.19-20.03-31.75,0-11.79,3.75-23.26,10.69-32.77Z"/>
        <path class="st19" d="M302.46,223.75l.38,6.41c1.08-.13,2.22-.3,3.39-.51,18.2-3.32,25.32-19.76,24.58-28.24,0,0-6.13,20.38-28.36,22.34Z"/>
        <path class="st19" d="M336.95,186.61c-.76.58-1.46,1.34-1.71,2.29,0,0,1.52.51,1.66,2.21.14,1.7-1.66,2.44-1.66,2.44,0,0,1.38,2.3,3.68,1.06s1.92-5.58-.37-6.49c0,0,3.64-.41,4.97.92,0,0,.3-1.34-1.21-2.52-1.57-1.22-3.77-1.11-5.36.09Z"/>
        <path class="st23" d="M288.85,157.18s5.51,9.48,12.63,12.55,14.73-1.4,21.85,2.68,2.58,11.71,4.17,15.38c1.6,3.67,3.37,4.16,3.37,4.16,0,0,.96-10.43,3.09-12.4,0,0,6.39-.05,8.38,1.81,0,0,3.57-7.21,4.19-12.86.61-5.65-5.65-7.49-5.65-7.49,0,0-1.47-13.5-18.05-18.54-16.57-5.03-29.21,2.95-35.84,0s-12.64,1.47-13.01,8.16c-.37,6.69,4.17,9.15,4.17,9.15,0,0-3.07,2.59-1.84,6.57s5.08,4.9,5.08,4.9c0,0,4.53-10.11,7.45-14.09Z"/>
        <path class="st15" d="M292.15,205.72l16.87-.83s-3.91,6.08-9.47,6.02c-5.12-.05-7.41-5.19-7.41-5.19Z"/>
        <path class="st23" d="M311.54,178.24c-.21,0-.43-.07-.6-.22-3.56-2.93-7.06-.44-7.1-.41-.42.31-1.02.22-1.33-.21s-.22-1.02.21-1.33c1.62-1.18,5.68-2.61,9.43.48.4.33.46.93.13,1.34-.19.23-.46.35-.73.35Z"/>
        <path class="st23" d="M290.56,178.24c-.21,0-.43-.07-.6-.22-3.56-2.93-7.06-.44-7.1-.41-.42.31-1.02.22-1.33-.21s-.22-1.02.21-1.33c1.62-1.18,5.68-2.61,9.43.48.41.33.46.93.13,1.34-.19.23-.46.35-.73.35Z"/>
        <path class="st25" d="M338.42,233.51l-5.34-6.95-21.21,7.47-3.43,5.96-2.32-5.35-3.22-3.52-3.34,6.45s.1,6.46,8.28,8.18c8.18,1.72,26.06-4.95,30.59-12.24Z"/>
        <path class="st20" d="M342.34,181.37s-3.3-1.26-6.43,1.62-2.07,5.71-2.07,5.71c0,0,1.45-3.41,4.55-3.04,3.1.37,5.35,8.74,1.21,10.31-4.14,1.57-9.43-.82-9.24-7.27.18-6.45,2.55-10.1,6.45-10.65,3.9-.56,5.44,2.72,5.53,3.33Z"/>
        <path class="st20" d="M313.06,213.79c-.4,0-.76-.28-.83-.69-.09-.46.21-.91.68-1,16.04-3.09,21.48-18.19,21.53-18.34.15-.44.64-.68,1.08-.52.44.15.68.64.52,1.08-.06.16-5.79,16.18-22.82,19.46-.05.01-.11.02-.16.02Z"/>
        <path class="st12" d="M309.48,213.24c0,1.98,1.61,3.59,3.59,3.59s3.59-1.61,3.59-3.59-1.61-3.59-3.59-3.59-3.59,1.61-3.59,3.59Z"/>
        <path class="st12" d="M337.98,187.2s-.45,3.96.42,6.09c.87,2.12,2.23,1.02,2.5-1.55.26-2.58-2.31-6.19-2.92-4.53Z"/>
        <path class="st15" d="M303.85,185.87s0,3.7,4.85,4.32c4.85.61,5.73-4.32,5.73-4.32,0,0-2.75-2.58-6.31-2.65-3.56-.08-4.27,2.65-4.27,2.65Z"/>
        <path class="st15" d="M281.72,185.87s0,3.7,4.75,4.32c4.74.61,5.38-4.31,5.38-4.31,0,0-2.46-2.58-5.94-2.66-3.48-.08-4.18,2.65-4.18,2.65Z"/>
        <path class="st23" d="M291.84,185.87s-2.54-2.79-5.26-3.29c-2.72-.5-4.58.82-4.86,3.29,0,0,.54-2.04,3.26-2.29,2.72-.25,6.86,2.29,6.86,2.29Z"/>
        <path class="st23" d="M314.43,185.87s-2.65-2.91-5.49-3.44c-2.84-.52-4.79.86-5.08,3.44,0,0,.56-2.13,3.4-2.39,2.84-.26,7.17,2.39,7.17,2.39Z"/>
        <path class="st19" d="M296.49,185.98l-2.23,13.49s-1.78.14-4.24-.87c0,0,5.84-11.11,6.48-12.62Z"/>
        <path class="st20" d="M230.01,393.95s-.36-10.77,11.76-14.14c12.13-3.38,26.9,6.49,29.27,14.14h-41.04Z"/>
        <ellipse class="st23" cx="308.5" cy="186.82" rx="3.04" ry="3.85"/>
        <path class="st23" d="M290.23,186.94c0,2.06-1.33,3.73-2.96,3.73s-2.96-1.67-2.96-3.73,1.33-3.73,2.96-3.73,2.96,1.67,2.96,3.73Z"/>
        <path class="st19" d="M321.94,196.43c0,1.68-1.98,3.04-4.43,3.04s-4.43-1.36-4.43-3.04,1.98-3.04,4.43-3.04c2.45,0,4.43,1.36,4.43,3.04Z"/>
        <path class="st19" d="M285.73,194.98c0,1.68-1.98,3.04-4.43,3.04s-4.43-1.36-4.43-3.04,1.98-3.04,4.43-3.04c2.45,0,4.43,1.36,4.43,3.04Z"/>
        <path class="st27" d="M401.99,359.67c-3.07,9.24-8.69,16.22-15.34,21.16-4.53,3.36-9.54,5.76-14.54,7.27-20.87,6.33-98.16,5.84-98.16,5.84l2.91-23.35,86.55-19.45s-11.2-35.51-10.7-64.2c.45-26.7,8.41-37.71,17.38-32.51.67.4,1.35.87,2.02,1.44,0,0,13.67,20.37,27.77,62.19,5.77,17.11,5.67,30.87,2.11,41.61Z"/>
        <path class="st18" d="M268.07,373.7l-18.36-3.35s-3.37-.58-6.75.88c-3.37,1.46-7.21,8.57-7.21,8.57,0,0,3.1.05,5.2-1.85,2.1-1.89,2.37-3.53,2.37-3.53l6.74.52.12,1.56c-2.25.49-8.66,1.95-11.78,3.29-3.83,1.64-5.84,6.66-5.84,6.66,0,0,5.02-.73,7.57-3.83l10.43-1.18.07.97c-2.15.15-5.99.63-9.59,2.22-5.38,2.37-7.02,5.56-7.02,5.56,0,0,5.38,0,9.16-2.92l2.55-.21c-2.52,1.61-4.69,5.5-4.69,5.5,0,0,1.09.27,3.56-.82,2.46-1.09,3.1-2.34,3.1-2.34l7.18.54h0c3.73.53,9.36,1.05,12.58-.02l6.86,1.06,2.15-17.29h-8.41Z"/>
        <path class="st12" d="M420.92,405.25H75.67c-3.12,0-5.65-2.53-5.65-5.65h0c0-3.12,2.53-5.65,5.65-5.65h345.25c3.12,0,5.65,2.53,5.65,5.65h0c0,3.12-2.53,5.65-5.65,5.65Z"/>
        <path class="st21" d="M288.58,405.25H73.41c-1.87,0-3.39-2.53-3.39-5.65h0c0-3.12,1.52-5.65,3.39-5.65h215.17c1.87,0,3.39,2.53,3.39,5.65h0c0,3.12-1.52,5.65-3.39,5.65Z"/>
        <path class="st20" d="M223.51,372.18h-118.9c-4.01,0-7.48-2.79-8.34-6.71l-15.37-69.8c-.75-3.42,1.85-6.67,5.36-6.67h120.24c3.55,0,6.63,2.47,7.39,5.94l15.42,70.02c.82,3.7-2,7.21-5.8,7.21Z"/>
        <path class="st21" d="M124.11,360.35c-.99,5-6.83,8.06-13.04,6.83-6.21-1.23-10.43-6.29-9.44-11.29.99-5,6.83-8.06,13.04-6.83,6.21,1.23,10.43,6.29,9.44,11.29Z"/>
        <path class="st0" d="M229.31,364.96l-15.42-70.02c-.76-3.47-3.84-5.94-7.39-5.94h-6.93c3.55,0,6.63,2.47,7.39,5.94l15.42,70.02c.82,3.7-2,7.21-5.8,7.21h6.93c3.79,0,6.61-3.51,5.8-7.21Z"/>
        <path class="st12" d="M208.73,391.15c0,1.55-1.25,2.8-2.8,2.8h-98.7c-1.58,0-3.02-.65-4.06-1.68-1.05-1.04-1.68-2.47-1.68-4.06,0-1.13.34-2.24.97-3.18l24.43-36.6c.7-1.03,1.86-1.65,3.1-1.65h42.71c1.53,0,2.49,1.66,1.72,2.99l-20.62,35.63c-.77,1.32.19,2.96,1.7,2.96h50.44c.77,0,1.47.32,1.98.83.5.5.82,1.2.82,1.97Z"/>
        <path class="st0" d="M179.43,330.1h-60.56c-.71,0-1.28-.57-1.28-1.28h0c0-.7.57-1.28,1.28-1.28h60.56c.71,0,1.28.57,1.28,1.28h0c0,.71-.57,1.28-1.28,1.28Z"/>
        <path class="st0" d="M182.35,337.76h-60.56c-.71,0-1.28-.57-1.28-1.28h0c0-.7.57-1.28,1.28-1.28h60.56c.71,0,1.28.57,1.28,1.28h0c0,.71-.57,1.28-1.28,1.28Z"/>
        <path class="st21" d="M82.15,293.14h128.23c1.04,0,2.04.19,2.97.54-1.15-2.79-3.89-4.67-6.99-4.67h-120.24c-2.67,0-4.81,1.88-5.35,4.29.44-.1.9-.15,1.38-.15Z"/>
        <path class="st21" d="M213.89,360.35c-.99,5-6.83,8.06-13.04,6.83-6.21-1.23-10.43-6.29-9.44-11.29.99-5,6.83-8.06,13.04-6.83,6.21,1.23,10.43,6.29,9.44,11.29Z"/>
        <path class="st0" d="M208.72,391.35c-.11,1.49-1.45,2.6-2.94,2.6h-56.17c-2.27,0-4.11-1.84-4.11-4.11h0c0-.78.22-1.54.63-2.19l25.81-40.88h.75c1.53,0,2.49,1.66,1.72,2.99l-20.62,35.63c-.77,1.32.19,2.96,1.7,2.96h50.44c.77,0,1.47.32,1.98.83.55.54.87,1.32.81,2.18Z"/>
        <path class="st29" d="M372.11,388.1c-20.87,6.33-98.16,5.84-98.16,5.84l99.86-26.57c10.44-2.78,17.09-13,15.39-23.67-4.39-27.59-12.88-77.09-19.12-89.28.67.4,1.35.87,2.02,1.44,0,0,13.67,20.36,27.77,62.19,14.1,41.83-6.89,63.72-27.77,70.04Z"/>
        <path class="st7" d="M366.22,352.12s14.28-.2,25.88,10.39"/>
        <path class="st9" d="M336.35,236s18.79,6.39,28.04,17.34"/>
        <path class="st7" d="M242.82,316.08s10.38,13.44,11.7,28.92"/>
        <path class="st9" d="M296.49,237.67s-3.95,11.07,12.53,12.43c16.48,1.36,34.54-14.81,34.54-14.81"/>
        <polygon class="st19" points="273.95 373.7 270.1 390.33 274.33 390.98 276.48 373.7 273.95 373.7"/>
        <path class="st9" d="M307.83,245.76s-4.89,13.92-8.28,49.92"/>
        <path class="st10" d="M339.39,161.18s-7.7-1.82-14.66.86"/>
        <path class="st10" d="M288.85,157.18s-.78,11.27,13.48,12.88"/>
        <path class="st10" d="M340.66,153.75s1.66,4.48.22,7.27"/>
        <path class="st10" d="M276.08,149.18s-.64,6.92,6.43,9.64"/>
        <path class="st10" d="M278.66,162.03s-1.31,5.18,3.58,7.41"/>
        <path class="st10" d="M301.48,144.35s9.12-4,22.07,1.82c11.68,5.25,12.8,11.79,12.8,11.79"/>
        <path class="st10" d="M340.66,163.96s2.57,1.21,2.57,4.86-1.76,7.36-1.76,7.36"/>
        <path class="st10" d="M297.83,162.68s1.82,4.82,12.43,5.36,14.04.54,16.93,3.96c2.89,3.43,1.93,7.18,1.93,7.18"/>
      </g>
    </g>
    <g>
      <g>
        <path class="st28" d="M293.86,50.83h-96.54c-5.59,0-10.12,4.53-10.12,10.12v16.53c0,5.59,4.53,10.12,10.12,10.12h12.79l-2.98,10.27c-.55,1.91,1.55,3.49,3.24,2.43l20.02-12.7h63.48c5.59,0,10.12-4.53,10.12-10.12v-16.53c0-5.59-4.53-10.12-10.12-10.12Z"/>
        <line class="st8" x1="200.32" y1="60.72" x2="291.42" y2="60.72"/>
        <line class="st8" x1="200.32" y1="68.45" x2="291.42" y2="68.45"/>
        <line class="st8" x1="200.32" y1="76.18" x2="291.42" y2="76.18"/>
      </g>
      <g>
        <circle class="st5" cx="136.57" cy="151.06" r="82.2"/>
        <path class="st21" d="M213.56,151.05c0,28.73-15.74,53.78-39.06,67.01-2.61,1.48-5.32,2.82-8.11,3.99-9.17,3.86-19.24,5.99-29.81,5.99-.7,0-1.4,0-2.09-.03-.43,0-.85-.03-1.28-.06-.3,0-.6,0-.9-.04-.46-.02-.91-.05-1.36-.09-.19,0-.38-.02-.57-.05-.54-.03-1.07-.09-1.61-.13-.62-.07-1.23-.13-1.83-.21l19.04-27.53-50.57-54.82-32.99,26.66c-.34-1.24-.66-2.47-.94-3.74-.1-.48-.21-.96-.3-1.43-.13-.63-.26-1.26-.36-1.89-.08-.42-.15-.84-.21-1.25-.1-.6-.19-1.21-.28-1.82-.05-.34-.1-.68-.13-1.02-.07-.52-.13-1.05-.18-1.59l-.03-.31c-.06-.57-.11-1.14-.15-1.72-.05-.64-.1-1.27-.12-1.92v-.04c-.04-.66-.07-1.31-.08-1.98-.02-.66-.03-1.32-.03-1.99,0-12.78,3.12-24.83,8.63-35.44,11.45-22.05,33.26-37.85,58.99-40.98,3.07-.37,6.2-.56,9.37-.56,12.92,0,25.12,3.19,35.81,8.83l-33.53,27.08,22.38,67.86,43.4-62.76c5.69,10.73,8.91,22.98,8.91,35.97Z"/>
        <path class="st20" d="M68.02,115.55l27.18,29.47-32.99,26.66c-.34-1.24-.66-2.47-.94-3.74-.1-.48-.21-.96-.3-1.43-.13-.63-.26-1.26-.36-1.89-.08-.42-.15-.84-.21-1.25-.1-.6-.19-1.21-.28-1.82-.05-.34-.1-.68-.13-1.02-.07-.52-.13-1.05-.18-1.59l-.03-.31c-.06-.57-.11-1.14-.15-1.72-.05-.64-.1-1.27-.12-1.92v-.04c-.04-.66-.07-1.31-.08-1.98-.02-.66-.03-1.32-.03-1.99,0-12.78,3.12-24.83,8.63-35.44Z"/>
        <path class="st26" d="M166.19,221.99c-9.17,3.86-19.24,5.99-29.81,5.99-.7,0-1.4,0-2.09-.03-.43,0-.85-.03-1.28-.06-.3,0-.6,0-.9-.04-.46-.02-.91-.05-1.36-.09-.19,0-.38-.02-.57-.05-.54-.03-1.07-.09-1.61-.13-.62-.07-1.23-.13-1.83-.21l19.04-27.53,20.42,22.14Z"/>
        <path class="st20" d="M172.18,82.84l-33.53,27.07-11.65-35.34c3.07-.37,6.2-.56,9.37-.56,12.92,0,25.12,3.19,35.81,8.83Z"/>
        <path class="st20" d="M213.35,150.99c0,28.73-15.74,53.78-39.06,67.01l-13.26-40.22,43.4-62.76c5.69,10.73,8.91,22.98,8.91,35.97Z"/>
        <path class="st12" d="M145.77,199.84l-19.04,27.53c-.49-.06-.97-.12-1.45-.2-.4-.06-.8-.11-1.2-.18-.45-.07-.88-.14-1.33-.23-.59-.1-1.18-.21-1.77-.33-.5-.1-1.01-.21-1.5-.32-.31-.07-.63-.14-.94-.22-.42-.1-.83-.2-1.25-.3-1.36-.34-2.7-.73-4.03-1.15-.49-.15-.97-.3-1.44-.47-.65-.22-1.28-.44-1.91-.68-.59-.21-1.18-.44-1.76-.66-.59-.23-1.17-.47-1.74-.71-.57-.24-1.14-.49-1.7-.74,0,0,0,0-.02,0-.57-.26-1.13-.52-1.69-.79-1.71-.82-3.37-1.7-5.01-2.64-.51-.3-1.03-.61-1.53-.91-1.06-.64-2.11-1.31-3.13-2.01-.51-.34-1.02-.69-1.52-1.05-.5-.35-1.01-.72-1.5-1.09-.02,0-.04-.03-.07-.05-.47-.35-.94-.71-1.4-1.07-.41-.32-.81-.64-1.21-.97-.59-.48-1.17-.97-1.74-1.46-.44-.38-.86-.76-1.29-1.15-.43-.39-.86-.79-1.28-1.19-.05-.05-.1-.09-.13-.12-.42-.41-.84-.82-1.25-1.24-.36-.36-.72-.73-1.08-1.1-.49-.51-.99-1.04-1.46-1.57-.42-.46-.83-.92-1.23-1.39-.32-.36-.63-.73-.93-1.1-.19-.21-.36-.42-.53-.64-.3-.37-.6-.74-.89-1.11-.33-.42-.66-.84-.97-1.26-.43-.56-.85-1.12-1.25-1.7-.36-.5-.71-1.01-1.06-1.52-.25-.36-.49-.72-.72-1.09-.15-.22-.29-.45-.44-.68-.65-1.01-1.27-2.04-1.87-3.09-.28-.49-.55-.99-.83-1.49-.63-1.15-1.23-2.32-1.79-3.51-.25-.49-.47-1-.7-1.5-.24-.53-.47-1.06-.7-1.6-.02-.04-.03-.09-.05-.12-.24-.56-.47-1.13-.7-1.7,0-.02-.01-.04-.02-.07-.23-.57-.45-1.15-.66-1.73-.21-.55-.41-1.11-.6-1.68-.17-.5-.34-1.02-.5-1.53-.11-.38-.24-.77-.35-1.15,0-.03-.02-.05-.02-.08-.13-.45-.27-.89-.39-1.34l32.99-26.66,50.57,54.83Z"/>
        <path class="st12" d="M204.44,115.02l-43.4,62.76-22.38-67.86,33.53-27.07c13.73,7.22,25,18.46,32.25,32.18Z"/>
        <polygon class="st20" points="161.04 177.78 145.77 199.84 95.2 145.02 138.66 109.91 161.04 177.78"/>
        <path class="st18" d="M150.63,140.28l.24-4.05,2.71-1.29c7.74-3.7,12.67-11.51,12.67-20.09,0-7.46-2.37-14.72-6.77-20.74l-3.02-4.14-25.75,8.62.22,9.67h-1.7c-3.45,0-6.25,2.8-6.25,6.25h0c0,3.45,2.8,6.25,6.25,6.25h1.99l.3,13.13v4.61s-4.65,4.48-13.47,8.28c0,0,9.84,12.35,26.1,13.17s16.88-8.96,16.88-8.96c0,0-6.74-4.04-10.61-7.38l.2-3.34Z"/>
        <path class="st19" d="M150.87,136.23l-.24,4.05c-.68-.08-1.4-.19-2.15-.32-11.51-2.1-16.02-12.5-15.55-17.87,0,0,3.88,12.9,17.94,14.14Z"/>
        <path class="st19" d="M129.04,112.73c.48.36.93.85,1.09,1.45,0,0-.96.32-1.05,1.4-.09,1.08,1.05,1.54,1.05,1.54,0,0-.87,1.46-2.33.67-1.46-.79-1.21-3.53.23-4.11,0,0-2.3-.26-3.15.58,0,0-.19-.85.77-1.6.99-.77,2.39-.7,3.39.06Z"/>
        <path class="st23" d="M150.32,105.11c-.13,0-.27.05-.38.15-2.2,1.92-4.46.41-4.48.39-.27-.19-.65-.12-.84.16-.19.27-.12.65.15.84,1.05.72,3.64,1.54,5.95-.48.25-.22.28-.6.06-.85-.12-.14-.3-.21-.47-.21Z"/>
        <path class="st23" d="M163.84,106.59c-.12-.07-.26-.09-.4-.06-2.87.54-4.05-1.91-4.06-1.94-.14-.3-.5-.43-.8-.29s-.43.5-.29.8c.54,1.15,2.35,3.18,5.37,2.61.33-.06.54-.38.48-.7-.04-.18-.15-.33-.3-.42Z"/>
        <path class="st15" d="M149.99,112.26s0,2.34-3.07,2.73-3.62-2.73-3.62-2.73c0,0,1.74-1.63,3.99-1.68,2.25-.05,2.7,1.68,2.7,1.68Z"/>
        <path class="st15" d="M163.99,112.26s0,2.34-3,2.73c-3,.39-3.4-2.73-3.4-2.73,0,0,1.56-1.64,3.76-1.68,2.2-.05,2.64,1.68,2.64,1.68Z"/>
        <path class="st23" d="M157.59,112.26s1.61-1.76,3.33-2.08c1.72-.32,2.9.52,3.08,2.08,0,0-.34-1.29-2.06-1.45-1.72-.16-4.34,1.45-4.34,1.45Z"/>
        <path class="st23" d="M143.29,112.26s1.68-1.84,3.48-2.18,3.03.54,3.22,2.18c0,0-.36-1.35-2.15-1.51s-4.54,1.51-4.54,1.51Z"/>
        <path class="st19" d="M154.64,112.32l1.41,8.53s1.12.09,2.68-.55c0,0-3.69-7.03-4.1-7.99Z"/>
        <path class="st23" d="M145.12,112.86c0,1.34.86,2.43,1.92,2.43s1.92-1.09,1.92-2.43-.86-2.43-1.92-2.43-1.92,1.09-1.92,2.43Z"/>
        <path class="st23" d="M158.6,112.93c0,1.3.84,2.36,1.88,2.36s1.88-1.06,1.88-2.36-.84-2.36-1.88-2.36c-1.04,0-1.88,1.06-1.88,2.36Z"/>
        <ellipse class="st19" cx="141.35" cy="118.94" rx="2.8" ry="1.92"/>
        <ellipse class="st19" cx="164.26" cy="118.02" rx="2.81" ry="1.92"/>
        <path class="st15" d="M155.66,124.15s-4.53.15-6.36,1.83,4.94,2.19,6.36,1.53c1.43-.66,2.06-3.57,0-3.36Z"/>
        <path class="st23" d="M144.62,111.34s-.9.43-1.89-.2c0,0,.09.93.56,1.12l1.32-.92Z"/>
        <path class="st23" d="M162.95,110.71s1.07.88,1.88.61c.3-.1-.84.94-.84.94-.27-.98-1.04-1.55-1.04-1.55Z"/>
        <path class="st24" d="M169.14,155.93s14.42,26.35,19.92,48.45l-14.87,8.66s-5.91-11.81-7.94-29.93c-2.03-18.12,2.89-27.17,2.89-27.17Z"/>
        <path class="st23" d="M161.04,96.43s-14.41,13.63-27.57,12.14c0,0-1.43,9.57.95,13.24,0,0-1.02,1.01-2.44-2.82s-.3-9.12-1.03-10.72c0,0-4.39-1.04-7.28,3.43s3.43,9.94,7.57,9.07l.19,8.23s-4.74,1.77-8.75-1.62c-4-3.39-2.04-6.86-2.04-6.86,0,0-6.04-5.96-6.31-14.24s6.62-13.49,6.62-13.49c0,0,2.27-12.25,17.41-12.39s19.55,4.41,19.55,4.41c0,0,9.77,1.66,12.52,12.05,2.75,10.39-4.18,15.94-4.18,15.94,0,0-2-13.31-5.21-16.37Z"/>
        <path class="st23" d="M123.49,91.36s-.73-8.9-9.17-8.52c-8.44.38-10.07,10.05-6.41,14.53,3.67,4.48,8.45,3.46,12.01,0,3.56-3.46,3.56-6.01,3.56-6.01Z"/>
        <path class="st15" d="M134.5,126.37l-5.32,11.08c-.19.4-.69.51-1.04.25l-.22-.17-17.44-13.48c-.27-.21-.35-.58-.19-.88l6.01-11.01.14-.26c.2-.38.7-.47,1.04-.2l16.84,13.85c.24.2.31.54.18.83Z"/>
        <path class="st25" d="M171.21,219.75c-10.41,5.26-22.17,8.21-34.63,8.21-10.25,0-20.04-2.01-28.99-5.65l-5.69-65.2s1.17-4.49,8.14-7.06c7.93-2.93,8.01-3.26,8.01-3.26,30.21,15.21,42.98,4.2,42.98,4.2l6.65,3.38c.66.33,1.17.88,1.45,1.56,1.57,3.75,6.77,16.77,7.29,25.74.41,7.15-2.97,26.35-5.22,38.08Z"/>
        <path class="st25" d="M105.23,152.68s-7.37,2.93-10.03,22.2c-2.67,19.28.18,29.49.18,29.49l14.67-17.41s5.02-26.69-4.81-34.29Z"/>
        <path class="st18" d="M127.13,124.49c-1.41.81-5.07,3.37-5.72,4.45-.31.52-.44,1.11-.5,1.59l-.92-.46c.46-1.98,1.32-3.97,1.32-3.97,0,0,1.46-.78,2.27-1.93s.51-2.08.51-2.08c-.56.32-1.45.91-2.38,1.57.01-.02.03-.03.04-.05.81-1.15.51-2.08.51-2.08-1.46.84-5.26,3.5-5.94,4.62-.37.6-.49,1.3-.53,1.82l-.26-.13c.44-2.1,1.4-4.34,1.4-4.34,0,0,1.46-.78,2.27-1.93.81-1.15.51-2.08.51-2.08-1.46.84-5.26,3.5-5.94,4.62s-.54,2.58-.54,2.58l.54,9.57.54,10.52s-19.34,44.26-19.11,55.05,6.7,15.07,6.7,15.07c0,0,6.92-.82,11.34-7.63s8.49-58.76,8.49-58.76c0,0,2.31-3.53,2.71-6.91s-1.14-11.9-1.14-11.9c.46-1.75,1.16-3.37,1.16-3.37,0,0,1.41-.75,2.19-1.86.78-1.11.49-2,.49-2Z"/>
        <path class="st28" d="M134.5,126.37l-5.32,11.08c-.19.4-.69.51-1.04.25l-.22-.17,5.38-11.57-16.99-13.81.14-.26c.2-.38.7-.47,1.04-.2l16.84,13.85c.24.2.31.54.18.83Z"/>
        <polygon class="st28" points="116.31 114.37 115.57 115.82 119.23 118.78 120.07 117.38 116.31 114.37"/>
        <path class="st18" d="M222.32,158.06l-4.11.76-.11-.36c1.19-.41,3.98-1.5,5.11-3.2,1.45-2.18,1.96-4.28,1.96-4.28,0,0-2.52,1.32-3.49,3.83l-1.95.36c.78-.48,1.5-1.07,1.96-1.75,1.45-2.18,1.96-4.28,1.96-4.28,0,0-2.52,1.32-3.49,3.83l-2.45.46c1.02-.8,2.08-1.84,2.53-2.97.96-2.43,1.02-4.6,1.02-4.6,0,0-2.18,1.82-2.6,4.48l-2.7,1.13-11.81,3.69.09-1.71s.45-.27,1.69-1.25,2.8-5.05,2.8-5.05c0,0-6.19,2.91-7.7,6.12-1.51,3.21-2.95,11.13-2.95,11.13,0,0-14.19,34.15-16.71,43.56h0s-4.87,1.88-7.19,5.08c0,0,4.96,9.1,8.89,10.05,0,0,11.4-2.17,16.83-15.48,5.43-13.3,7.62-40.18,7.62-40.18l11.4-6.23s3.44-.98,4.63-2.76c1.19-1.78,1.6-3.5,1.6-3.5,0,0-2.06,1.08-2.85,3.13Z"/>
        <path class="st3" d="M171.55,196.82s-6.68-1.29-18.1-1.29-22.86,2.14-22.86,2.14"/>
        <path class="st10" d="M159.51,88.39s1.84,3.39,1.68,5.71"/>
        <path class="st10" d="M156.69,85.82s-7.46,2.43-11.57,8.29"/>
        <path class="st10" d="M122.08,89.6s-1.21,2.71-1.29,3.71c0,0-3.99,3.71-4.49,5.86"/>
        <path class="st10" d="M107.08,99.68c.29.21,4.23,3.2,8.28.68"/>
        <path class="st10" d="M127.01,88.39s9.26-8.54,24.58-4.04"/>
        <path class="st10" d="M128.87,106.02s3.98,1.6,12.48,0,16.24-10.31,16.24-10.31"/>
        <path class="st3" d="M125.44,152.68s11.62,4.85,23.53,4.13c11.9-.71,13.39-2.86,13.39-2.86"/>
      </g>
    </g>
  </g>
</svg>