<svg id="Group_45399" data-name="Group 45399" xmlns="http://www.w3.org/2000/svg" xmlns:xlink="http://www.w3.org/1999/xlink" width="88" height="88" viewBox="0 0 88 88">
  <defs>
    <clipPath id="clip-path">
      <rect id="Rectangle_5042" data-name="Rectangle 5042" width="88" height="88" fill="none"/>
    </clipPath>
  </defs>
  <g id="Group_45398" data-name="Group 45398" clip-path="url(#clip-path)">
    <path id="Path_43408" data-name="Path 43408" d="M439.977,315.284c-2.345,0-4.691-.025-7.036.011a1.461,1.461,0,0,1-1.621-1.638c.043-1.295.006-2.592.012-3.888a1.348,1.348,0,0,1,1.528-1.525,2.333,2.333,0,0,0,.869-.042c.891-.366,1.051-.6,1.1-1.56.069-1.277.031-2.561.013-3.841a1.485,1.485,0,0,0-1.63-1.588c-1.234-.01-2.47-.041-3.7.009a1.477,1.477,0,0,1-1.709-1.689c.046-1.2.024-2.407,0-3.61-.009-.578-.059-1.173-.672-1.478a2.233,2.233,0,0,0-2.216-.018,1.251,1.251,0,0,0-.626,1.15c0,1.265-.052,2.534.017,3.8a1.6,1.6,0,0,1-1.878,1.84c-.137-.015-.278,0-.416-.012a1.288,1.288,0,0,1-1.229-1.246,7.393,7.393,0,0,0-.026-.877c-.186-.944-.487-1.309-1.736-1.38a1.763,1.763,0,0,1-1.361-.394,1.306,1.306,0,0,1-.393-.849c-.017-.308-.021-.617-.009-.925a1.315,1.315,0,0,1,1.368-1.357,3.289,3.289,0,0,0,1.048-.058c.854-.325,1.043-.642,1.084-1.573.055-1.247.049-2.5,0-3.749-.04-1.088-.4-1.559-1.654-1.647-.551-.038-1.115.032-1.517-.465a.811.811,0,0,1-.14-.179,2.845,2.845,0,0,1-.047-2.139,1.2,1.2,0,0,1,1.169-.731c1.372-.032,2.749-.062,4.119.006,1.039.051,1.5.427,1.594,1.634a2.041,2.041,0,0,0,.267,1.274,1.386,1.386,0,0,0,1.126.593c.031,0,.062,0,.093,0,1.454-.143,2.2.59,2.031,2.033a1.454,1.454,0,0,0,1.5,1.489c.3-.044.618.065.913-.053.909-.364.967-.637,1.109-1.519a1.59,1.59,0,0,0,0-.37,1.4,1.4,0,0,1,1.565-1.588,1.984,1.984,0,0,0,.863-.052c.8-.312,1.048-.624,1.081-1.625.042-1.264.007-2.53.011-3.8,0-1.061.487-1.551,1.541-1.555,1.25,0,2.5-.018,3.749,0,1.562.027,1.873-1.1,1.716-2.172-.147-1-.61-1.3-1.711-1.342-1.156-.04-2.314-.009-3.471-.009-1.361,0-1.821.458-1.825,1.805a2.561,2.561,0,0,1-.048.642,1.437,1.437,0,0,1-1.428,1.069q-3.8.007-7.591,0a1.32,1.32,0,0,1-1.483-1.471q-.013-2.037,0-4.074a1.329,1.329,0,0,1,1.513-1.486,2.241,2.241,0,0,1,1.215.165,1.432,1.432,0,0,1,.786,1.252,5.033,5.033,0,0,0,.026,1.014,1.409,1.409,0,0,0,1.411,1.085,4.144,4.144,0,0,0,1-.068c.8-.3,1.06-.646,1.073-1.629.032-2.391.039-4.784,0-7.175-.019-1.094.559-1.78,1.7-1.686a4.945,4.945,0,0,1,.735.045,1.441,1.441,0,0,1,1.09,1.413c.007,1.389.032,2.778-.01,4.166a1.486,1.486,0,0,0,1.438,1.416,5.55,5.55,0,0,0,1-.06,1.506,1.506,0,0,0,1.089-1.534c.01-.185,0-.37,0-.555a1.288,1.288,0,0,1,1.355-1.363q5.67-.019,11.341,0a1.426,1.426,0,0,1,1.37,1.348c.014.262.013.525,0,.787a1.452,1.452,0,0,1-1.395,1.377,4.037,4.037,0,0,0-1.185.086,1.409,1.409,0,0,0-.936,1.283c-.024,1.794-.324,2.1-2.106,2.149a1.4,1.4,0,0,0-1.412,1.43.449.449,0,0,1,0,.046c-.156,1.509.589,2.163,2,2.057a1.4,1.4,0,0,1,1.516,1.52,2.123,2.123,0,0,1-.265,1.371,1.823,1.823,0,0,1-1.729.617,1.387,1.387,0,0,0-1.452.962,1.909,1.909,0,0,0,.82,2.46,1.323,1.323,0,0,0,.719.087,1.615,1.615,0,0,1,1.918,1.938,1.543,1.543,0,0,1-1.023,1.519,1.6,1.6,0,0,1-.546.066c-1.578.013-1.934.4-1.972,1.994a1.573,1.573,0,0,0,.973,1.461,1.432,1.432,0,0,0,.493.062c1.281,0,2.562-.017,3.842.007a1.555,1.555,0,0,0,1.741-1.765c0-.139,0-.278,0-.417a1.285,1.285,0,0,1,1.335-1.334c1.435-.021,2.87-.018,4.3,0a1.43,1.43,0,0,1,1.391,1.377c.011.246.01.494,0,.741a1.459,1.459,0,0,1-1.423,1.4,3.748,3.748,0,0,0-1.094.072,1.384,1.384,0,0,0-1,1.322,1.628,1.628,0,0,0,0,.185c.14,1.3-.606,2.04-1.951,1.95a1.377,1.377,0,0,0-1.568,1.537c0,6.018.014,12.036-.017,18.054a1.541,1.541,0,0,0,1.537,1.514,1.681,1.681,0,0,1,1.7.566,2,2,0,0,1-.54,2.812,1.917,1.917,0,0,1-1.041.125,1.474,1.474,0,0,0-1.642,1.63,2.1,2.1,0,0,1-.039.828,1.469,1.469,0,0,1-1.482,1.065c-2.484,0-4.969.022-7.452-.01a1.481,1.481,0,0,0-1.577,1.6,3.07,3.07,0,0,1,0,.463,1.43,1.43,0,0,1-1.449,1.461q-2.083.016-4.166,0a1.3,1.3,0,0,1-1.418-1.441q-.013-3.842,0-7.685a1.3,1.3,0,0,1,1.437-1.422q2.083-.017,4.166,0a1.435,1.435,0,0,1,1.429,1.434.767.767,0,0,1,0,.093c-.153,1.652.729,2.117,2.194,1.988a1.51,1.51,0,0,0,1.323-1.574c.008-.2,0-.4,0-.6a1.317,1.317,0,0,1,1.335-1.343,4.568,4.568,0,0,0,1.093-.061c1.063-.326,1.177-1.291,1.049-2.133-.155-1.02-.69-1.3-1.686-1.313-2.406-.033-4.814-.011-7.221-.011m-1.61-8.874c0,1.3-.007,2.592,0,3.888a1.391,1.391,0,0,0,1.448,1.464q3.818.013,7.637,0a1.389,1.389,0,0,0,1.464-1.448c.009-2.5.039-5-.013-7.5-.023-1.1-.407-1.551-1.557-1.584-2.528-.073-5.06-.03-7.59-.018a1.385,1.385,0,0,0-1.39,1.447q0,1.875,0,3.749m-3.531-8.719c.663,0,1.327,0,1.99,0a1.424,1.424,0,0,0,1.541-1.561c0-.17,0-.339,0-.509a1.409,1.409,0,0,1,1.468-1.447c.231,0,.463.008.694,0a1.405,1.405,0,0,0,1.349-1.327,7.608,7.608,0,0,0,0-.833,1.389,1.389,0,0,0-1.373-1.349c-1.434-.017-2.869-.019-4.3,0a1.382,1.382,0,0,0-1.353,1.368c-.01.216,0,.432,0,.648a1.417,1.417,0,0,1-1.515,1.494c-.185,0-.37,0-.555,0a1.409,1.409,0,0,0-1.447,1.468c0,.2,0,.4,0,.6a1.405,1.405,0,0,0,1.469,1.446c.679.009,1.357,0,2.036,0m3.531-12.376c0,1.3.483,1.82,1.7,1.821,1.3,0,1.824-.484,1.82-1.7,0-1.269-.5-1.759-1.818-1.833a1.5,1.5,0,0,0-1.7,1.708" transform="translate(-378.551 -241.382)" fill="#3f5395"/>
    <path id="Path_43409" data-name="Path 43409" d="M303.639,23.03c0-2.392.024-4.784-.011-7.175a1.46,1.46,0,0,1,1.635-1.623c1.248.043,2.5.009,3.749.01a1.5,1.5,0,0,0,1.659-1.652c.018-1.25.044-2.5-.008-3.749-.045-1.085-.4-1.559-1.626-1.621-1.277-.064-2.561-.042-3.841-.006a1.425,1.425,0,0,1-1.565-1.55c.033-1.326,0-2.654.01-3.981A1.346,1.346,0,0,1,305.175.169c1.154-.011,1.667.266,1.922,1.032a2.181,2.181,0,0,1,.05.963A1.515,1.515,0,0,0,308.66,3.7c1.324-.06,2.653-.02,3.98-.016A1.452,1.452,0,0,1,314.2,5.233a3.061,3.061,0,0,0,.044.96A1.4,1.4,0,0,0,315.661,7.2a3.3,3.3,0,0,0,1-.065,1.708,1.708,0,0,0,1.017-2.115c-.153-1-.659-1.276-1.726-1.328a1.709,1.709,0,0,1-1.392-.433,1.268,1.268,0,0,1-.348-.774,8.178,8.178,0,0,1,0-1.11A1.273,1.273,0,0,1,315.39.184a4.394,4.394,0,0,1,.462-.015h10.739a1.474,1.474,0,0,1,1.674,1.656q0,1.875,0,3.75a1.466,1.466,0,0,1-1.652,1.631c-.2,0-.4.006-.6-.009a1.305,1.305,0,0,1-1.261-1.268c-.031-.347-.01-.692-.071-1.046a1.232,1.232,0,0,0-.989-1.093,1.978,1.978,0,0,0-2.093.361,1.987,1.987,0,0,0,.576,2.981,2.107,2.107,0,0,0,.862.069c1.17.011,1.728.546,1.706,1.715a1.622,1.622,0,0,0,.6,1.541,1.247,1.247,0,0,0,.855.268c1.474-.145,2.119.537,2.09,2.093-.063,3.424-.013,6.851-.025,10.277a1.6,1.6,0,0,1-.946,1.621,1.95,1.95,0,0,1-2.479-.747,1.165,1.165,0,0,1-.088-.533q0-3.773,0-7.546a1.448,1.448,0,0,0-1.64-1.648c-.139,0-.278,0-.417,0a1.412,1.412,0,0,1-1.461-1.456c-.041-1.739-.371-2.062-2.106-2.062-1.142,0-2.284,0-3.425,0a1.4,1.4,0,0,0-1.5,1.521,2.333,2.333,0,0,0,.12,1.175,1.4,1.4,0,0,0,1.32.822c.216,0,.432-.006.648,0a1.433,1.433,0,0,1,1.423,1.44q.016,2.083,0,4.166a1.474,1.474,0,0,1-1.477,1.429h-.694a1.31,1.31,0,0,1-1.335-1.232c-.035-.334-.006-.668-.053-1.006-.134-.957-.783-1.25-1.636-1.271-1.3-.032-2.592-.012-3.888-.007a1.4,1.4,0,0,0-1.467,1.466c0,2.546.023,5.093-.015,7.638a1.5,1.5,0,0,0,1.451,1.451,4.258,4.258,0,0,0,1-.068c.845-.316,1.036-.677,1.071-1.583.049-1.279.037-2.562,0-3.842a1.426,1.426,0,0,1,1.561-1.554c1.134.03,1.621.263,1.894,1.014a1.991,1.991,0,0,1,.061.96,1.46,1.46,0,0,0,1.576,1.555,3.735,3.735,0,0,0,.863-.062c.8-.312,1.02-.628,1.085-1.626a2.053,2.053,0,0,1,.315-1.355,1.833,1.833,0,0,1,1.875-.437c.907.159,1.286.515,1.325,1.7.04,1.218.027,2.438,0,3.657a1.6,1.6,0,0,1-.912,1.555,1.184,1.184,0,0,1-.533.089c-1.342,0-2.685.026-4.027-.009a1.516,1.516,0,0,0-1.573,1.572c.06,1.293.018,2.592.015,3.888a1.446,1.446,0,0,1-1.558,1.585q-1.967.006-3.935,0a1.344,1.344,0,0,1-1.537-1.553,4.45,4.45,0,0,0-.1-.949,1.494,1.494,0,0,0-1.5-1.014c-.154-.005-.309,0-.463,0a1.324,1.324,0,0,1-1.467-1.489c-.006-2.438,0-4.876,0-7.314" transform="translate(-275.485 -0.153)" fill="#3f5395"/>
    <path id="Path_43410" data-name="Path 43410" d="M7.016,335.743c-1.8,0-3.61-.027-5.414.011a1.423,1.423,0,0,1-1.593-1.609,2.305,2.305,0,0,0,0-.37,1.4,1.4,0,0,1,1.544-1.555c2.422.015,4.844-.011,7.266.01,1.563.014,1.873-1.1,1.716-2.172-.147-1-.606-1.325-1.71-1.341q-3.586-.053-7.173,0a1.444,1.444,0,0,1-1.643-1.653,1.6,1.6,0,0,0,0-.277A1.408,1.408,0,0,1,1.6,325.181a2.122,2.122,0,0,0,.86-.06c.784-.3,1.013-.657,1.068-1.639.028-.5-.036-1.01.4-1.406A2.618,2.618,0,0,1,6,321.725a1.5,1.5,0,0,1,1.04,1.582c-.062.8.093,1.521.939,1.782a1.924,1.924,0,0,0,2.4-.7,1.993,1.993,0,0,0,.177-1.02,1.444,1.444,0,0,1,1.719-1.7,1.539,1.539,0,0,0,1.607-.776,1.937,1.937,0,0,0,.194-.923c0-1.188.01-2.376,0-3.564-.014-1.22-.485-1.725-1.773-1.773a1.664,1.664,0,0,0-.185,0,1.385,1.385,0,0,1-1.562-1.541,3.121,3.121,0,0,0-.033-.685c-.156-.962-.727-1.226-1.672-1.292-.138-.01-.278,0-.416,0a1.319,1.319,0,0,1-1.393-1.38,6.616,6.616,0,0,0-.072-.952c-.161-.849-.612-1.017-1.341-1.174a1.718,1.718,0,0,0-1.932.719,1.342,1.342,0,0,0-.171.839c.136,1.292-.557,2.08-1.983,1.956a1.717,1.717,0,0,1-1.034-.3,1.312,1.312,0,0,1-.5-1.039c0-1.45-.015-2.9,0-4.351a1.272,1.272,0,0,1,1.363-1.352q3.887-.021,7.775,0a1.437,1.437,0,0,1,1.41,1.406c.07,1.838.261,2.028,2.12,2.108a1.457,1.457,0,0,1,1.4,1.375.515.515,0,0,1,0,.093c-.188,1.405.476,2.127,2.086,2.07,2.28-.081,4.565-.021,6.848-.02a1.463,1.463,0,0,1,1.622,1.616,1.992,1.992,0,0,1-.29,1.317,1.821,1.821,0,0,1-1.695.589,1.276,1.276,0,0,0-1.439.956c-.247,1.125-.238,2.087.835,2.455a1.908,1.908,0,0,0,2.4-.689,2.23,2.23,0,0,0,.182-1.111,1.4,1.4,0,0,1,1.622-1.616,1.586,1.586,0,0,0,1.724-.812,2.025,2.025,0,0,0,.171-1.067A1.433,1.433,0,0,1,29.8,311.1c1.05.044,1.534.283,1.8,1.014a1.988,1.988,0,0,1,.061.96,1.463,1.463,0,0,0,1.574,1.558,2.882,2.882,0,0,1,.508,0,1.434,1.434,0,0,1,1.443,1.467q.013,1.944,0,3.888a1.567,1.567,0,0,1-1.689,1.7c-.766-.041-1.426-.1-1.759-.914a2.561,2.561,0,0,1-.064-.86c-.044-.613-.08-1.242-.743-1.53a2.19,2.19,0,0,0-2.214.062,1.161,1.161,0,0,0-.56,1.087c.135,1.549-.509,2.246-2.174,2.146-1.107-.066-2.221-.014-3.331-.012a1.41,1.41,0,0,0-1.536,1.536,2.145,2.145,0,0,1-.267,1.371,1.825,1.825,0,0,1-1.729.616,1.409,1.409,0,0,0-1.474,1,2.4,2.4,0,0,0-.046.821,1.48,1.48,0,0,1-1.688,1.686,1.656,1.656,0,0,0-1.581.615,1.384,1.384,0,0,0-.258.814c.013,1.327.007,2.654.005,3.98a1.466,1.466,0,0,1-1.651,1.631q-2.707,0-5.415,0" transform="translate(0 -275.914)" fill="#3f5395"/>
    <path id="Path_43411" data-name="Path 43411" d="M.046,696.3c0-3.039-.011-6.079.009-9.118a2.987,2.987,0,0,1,.718-1.728,3.616,3.616,0,0,1,3.04-1.464c5.678-.009,11.355-.021,17.033.006a3.6,3.6,0,0,1,3.663,2.749,4.42,4.42,0,0,1,.164,1.172c0,5.586.016,11.171-.008,16.757a3.789,3.789,0,0,1-3.016,3.915,2.87,2.87,0,0,1-.828.025q-8.794,0-17.587-.007a2.647,2.647,0,0,1-1.636-.649,3.72,3.72,0,0,1-1.557-3c.027-2.885.008-5.771.008-8.656Zm3.525-.009c0,2.144,0,4.288,0,6.432a2.7,2.7,0,0,0,2.356,2.365q6.339.007,12.678,0a1.5,1.5,0,0,0,.408-.036,2.579,2.579,0,0,0,2.125-2.812c.042-3.964.018-7.928.01-11.893a3.183,3.183,0,0,0-.305-1.412,2.64,2.64,0,0,0-2.593-1.418c-4.158.02-8.316-.125-12.473.07a2.534,2.534,0,0,0-2.2,2.314c-.018,2.129-.006,4.257-.006,6.386" transform="translate(-0.036 -620.639)" fill="#293d7e"/>
    <path id="Path_43412" data-name="Path 43412" d="M683.16,12.405c0-3.039-.049-6.08.025-9.118A3.2,3.2,0,0,1,684.956.645,4,4,0,0,1,687.038.1C692.654.094,698.27.076,703.885.11a3.694,3.694,0,0,1,3.77,2.882,3.936,3.936,0,0,1,.125,1.042c.007,5.586.021,11.171,0,16.757a3.79,3.79,0,0,1-3.021,3.912,2.72,2.72,0,0,1-.782.023q-8.817,0-17.634-.007a2.64,2.64,0,0,1-1.634-.653,3.728,3.728,0,0,1-1.554-3c.028-2.885.009-5.771.009-8.656Zm3.518,0c0,2.129-.02,4.258.007,6.387a2.489,2.489,0,0,0,2.328,2.395c4.257.046,8.514.018,12.771.017a1.8,1.8,0,0,0,.4-.06,2.618,2.618,0,0,0,2.071-2.83c-.013-4.143.139-8.288-.08-12.429a2.282,2.282,0,0,0-.76-1.528,2.975,2.975,0,0,0-2.133-.729q-2.429-.042-4.859,0c-2.507.038-5.016-.108-7.523.083a2.5,2.5,0,0,0-2.218,2.358q0,3.17,0,6.34" transform="translate(-619.825 -0.082)" fill="#293d7e"/>
    <path id="Path_43413" data-name="Path 43413" d="M12.283,24.644c-3.023,0-6.046.011-9.069-.009a2.84,2.84,0,0,1-1.713-.7A4.157,4.157,0,0,1,.06,21.774a3.6,3.6,0,0,1-.041-1.006Q.007,12.485.017,4.2a3.832,3.832,0,0,1,.634-2.6A3.6,3.6,0,0,1,3.422.1C9.029-.1,14.638.062,20.246.029a4.637,4.637,0,0,1,2.542.537,3.362,3.362,0,0,1,1.719,2.492,14.56,14.56,0,0,1,.146,1.718c-.022,5.291-.01,10.582-.015,15.873a3.8,3.8,0,0,1-.868,2.638,3.52,3.52,0,0,1-2.649,1.345c-2.946.009-5.892,0-8.838,0v.009m-.044-3.527v0q3.193,0,6.386,0a1.736,1.736,0,0,0,.4-.053,2.689,2.689,0,0,0,2.087-2.917c.03-3.872.014-7.744,0-11.616a3.838,3.838,0,0,0-.155-1.072,2.486,2.486,0,0,0-2.723-1.907c-4.158,0-8.317-.139-12.474.072A2.414,2.414,0,0,0,3.541,5.921c-.024,4.273-.013,8.546-.007,12.819a2.642,2.642,0,0,0,2.412,2.376q3.147.005,6.293,0" transform="translate(-0.004 0.001)" fill="#293d7e"/>
    <path id="Path_43414" data-name="Path 43414" d="M303.733,668.786q0-1.828,0-3.656c0-1.14.474-1.6,1.627-1.612a2.211,2.211,0,0,0,.814-.062c.832-.317,1.031-.685,1.064-1.59.046-1.263.04-2.531,0-3.794a1.43,1.43,0,0,1,1.613-1.594,2.166,2.166,0,0,0,.86-.061,1.509,1.509,0,0,0,1.051-1.608c.009-2.406.03-4.814-.009-7.22a1.475,1.475,0,0,1,1.683-1.668c1.033.046,1.536.3,1.786,1.038a2.119,2.119,0,0,1,.052.962,1.478,1.478,0,0,0,1.554,1.539,1.778,1.778,0,0,1,1.439.321,1.971,1.971,0,0,1-.286,3.042,1.727,1.727,0,0,1-.99.139,1.522,1.522,0,0,0-1.722,1.7c.068,1.261.019,2.529.014,3.794a1.449,1.449,0,0,1-1.546,1.553,3.113,3.113,0,0,0-1,.077,1.4,1.4,0,0,0-.969,1.3q0,2.129,0,4.258a1.388,1.388,0,0,0,1.392,1.394,2.943,2.943,0,0,0,1.045-.062c.845-.317,1.031-.667,1.067-1.587.052-1.34.047-2.685,0-4.026a1.439,1.439,0,0,1,1.37-1.359,3.72,3.72,0,0,0,1.142-.051,1.545,1.545,0,0,0,1.012-1.62c.027-1.342.006-2.684.007-4.026A1.327,1.327,0,0,1,319,652.975a3.532,3.532,0,0,1,1.318.091,1.482,1.482,0,0,1,1,1.47c.012,2.468.022,4.937-.005,7.4a1.483,1.483,0,0,1-1.643,1.589,1.813,1.813,0,0,0-.862.05,1.311,1.311,0,0,0-1,1.483c.037.433-.106.882.17,1.3a1.345,1.345,0,0,0,1.155.687,6.656,6.656,0,0,1,.953.057,1.437,1.437,0,0,1,1.232,1.595c.032,1.234.017,2.468.005,3.7a1.522,1.522,0,0,1-1.693,1.679c-.2-.023-.4,0-.6-.016a1.281,1.281,0,0,1-1.208-1.215c-.024-.292.022-.591-.023-.878a1.5,1.5,0,0,0-1.712-1.412c-2.406,0-4.813.025-7.219-.013a1.5,1.5,0,0,0-1.621,1.611,1.73,1.73,0,0,1-.27,1.319,1.348,1.348,0,0,1-.813.553A3.329,3.329,0,0,1,304.65,674a1.281,1.281,0,0,1-.915-1.371c-.008-1.28,0-2.561,0-3.841" transform="translate(-275.579 -586.101)" fill="#3f5395"/>
    <path id="Path_43415" data-name="Path 43415" d="M842.133,727.23c0,1.25.035,2.5-.013,3.748a1.49,1.49,0,0,0,1.462,1.441,3.8,3.8,0,0,1,.647,0,1.325,1.325,0,0,1,1.241.79,2.252,2.252,0,0,1-.006,1.953,1.283,1.283,0,0,1-1.208.769c-1.419.014-2.838.016-4.257,0a1.272,1.272,0,0,1-1.375-1.383c.034-1.606-.482-2.157-2.123-2.138A1.292,1.292,0,0,1,835.1,731c-.007-.262-.009-.525,0-.786a1.309,1.309,0,0,1,1.31-1.316,3.622,3.622,0,0,0,1.1-.058c.811-.314,1.052-.575,1.094-1.613.049-1.217.06-2.439,0-3.655-.076-1.511,1-1.877,2.18-1.685a1.511,1.511,0,0,1,1.362,1.732c-.044,1.2-.011,2.406-.011,3.609" transform="translate(-757.691 -654.994)" fill="#3f5395"/>
    <path id="Path_43416" data-name="Path 43416" d="M880.069,309.318c0,1.157-.052,2.317.015,3.47a1.587,1.587,0,0,1-1.853,1.817c-.153-.017-.309,0-.462-.015a1.281,1.281,0,0,1-1.2-1.219c-.024-.291.023-.591-.023-.878a1.5,1.5,0,0,0-1.715-1.409c-.17,0-.34,0-.509-.007a1.266,1.266,0,0,1-1.273-1.3q-.035-2.2,0-4.4a1.264,1.264,0,0,1,1.334-1.33q2.151-.031,4.3,0a1.422,1.422,0,0,1,1.389,1.47c.008,1.265,0,2.53,0,3.795" transform="translate(-792.109 -275.884)" fill="#3f5395"/>
    <path id="Path_43417" data-name="Path 43417" d="M880.1,461.358c0,1.2,0,2.4,0,3.607a1.44,1.44,0,0,1-1.517,1.53c-.216,0-.432.007-.647,0a1.307,1.307,0,0,1-1.351-1.369,5.48,5.48,0,0,0-.023-.783c-.181-.969-.571-1.3-1.75-1.359a1.719,1.719,0,0,1-1.354-.406,1.33,1.33,0,0,1-.381-.853c-.018-.292-.018-.586-.009-.878a1.322,1.322,0,0,1,1.383-1.388,3.266,3.266,0,0,0,1.045-.062c.852-.321.991-.672,1.084-1.578a6.024,6.024,0,0,1,.039-.918,1.342,1.342,0,0,1,1.127-.937,3.057,3.057,0,0,1,1.091.033c.8.138,1.237.619,1.259,1.665.026,1.233.006,2.466.006,3.7" transform="translate(-792.134 -413.703)" fill="#3f5395"/>
    <path id="Path_43418" data-name="Path 43418" d="M238.307,611.537c0,.54-.041,1.083.008,1.619a1.605,1.605,0,0,1-1.942,1.906c-.107-.011-.216,0-.323-.01a1.306,1.306,0,0,1-1.257-1.271c-.028-.319,0-.636-.049-.96-.128-.95-.787-1.25-1.636-1.27-1.249-.031-2.5-.04-3.747,0a1.427,1.427,0,0,1-1.609-1.638c.015-.184,0-.37.006-.555a1.278,1.278,0,0,1,1.341-1.327q3.91-.024,7.82,0a1.42,1.42,0,0,1,1.387,1.425c.012.694,0,1.388,0,2.082" transform="translate(-206.635 -551.714)" fill="#3f5395"/>
    <path id="Path_43419" data-name="Path 43419" d="M797.163,347.307c0-1.249-.005-2.5,0-3.748a1.329,1.329,0,0,1,1.5-1.5,2.288,2.288,0,0,1,1.217.155,1.442,1.442,0,0,1,.8,1.288.615.615,0,0,1,0,.092c-.167,1.389.582,2.1,1.972,1.994a1.417,1.417,0,0,1,1.553,1.535,1.709,1.709,0,0,1-.837,1.829,1.828,1.828,0,0,1-1.038.133,1.48,1.48,0,0,0-1.654,1.662,1.58,1.58,0,0,1-.568,1.559,2.3,2.3,0,0,1-2.6-.143,1.414,1.414,0,0,1-.348-1.058q0-1.9,0-3.794" transform="translate(-723.274 -310.37)" fill="#3f5395"/>
    <path id="Path_43420" data-name="Path 43420" d="M193.359,304.081c.678,0,1.356-.006,2.033,0a1.43,1.43,0,0,1,1.48,1.47,2.314,2.314,0,0,1-.164,1.259,1.4,1.4,0,0,1-1.248.784q-2.1.018-4.205,0a1.305,1.305,0,0,1-1.412-1.4c-.008-.262-.01-.524,0-.785a1.287,1.287,0,0,1,1.341-1.325c.723-.02,1.448,0,2.172,0Z" transform="translate(-172.241 -275.918)" fill="#3f5395"/>
    <path id="Path_43421" data-name="Path 43421" d="M531.454,839.478c0-.693-.01-1.387,0-2.08a1.308,1.308,0,0,1,1.4-1.415c.231-.007.462-.007.693,0a1.433,1.433,0,0,1,1.422,1.437q.017,2.08,0,4.159a1.433,1.433,0,0,1-1.421,1.438c-.262.007-.524.01-.785,0a1.284,1.284,0,0,1-1.3-1.316c-.023-.739,0-1.479,0-2.218Z" transform="translate(-482.191 -758.561)" fill="#3f5395"/>
    <path id="Path_43422" data-name="Path 43422" d="M341.666,535.466c0-.693-.011-1.387,0-2.08a1.3,1.3,0,0,1,1.4-1.4,2.437,2.437,0,0,1,1.308.153,1.387,1.387,0,0,1,.8,1.24q.022,2.126,0,4.252a1.429,1.429,0,0,1-1.379,1.384c-.261.011-.524.01-.785,0a1.3,1.3,0,0,1-1.344-1.372c-.017-.724,0-1.448,0-2.172" transform="translate(-309.993 -482.703)" fill="#3f5395"/>
    <path id="Path_43423" data-name="Path 43423" d="M911.018,649.49c0-.693-.009-1.387,0-2.08a1.305,1.305,0,0,1,1.422-1.432,2.378,2.378,0,0,1,1.3.163,1.4,1.4,0,0,1,.785,1.248q.018,2.1,0,4.206a1.432,1.432,0,0,1-1.4,1.412c-.277.009-.555.011-.831-.006a1.271,1.271,0,0,1-1.274-1.292c-.025-.739-.005-1.479-.005-2.218Z" transform="translate(-826.575 -586.144)" fill="#3f5395"/>
    <path id="Path_43424" data-name="Path 43424" d="M75.97,421.59c0-.694-.009-1.389,0-2.083a1.318,1.318,0,0,1,1.428-1.435c.2-.005.4,0,.6,0a1.438,1.438,0,0,1,1.484,1.473c.009,1.311.02,2.623,0,3.934a1.518,1.518,0,0,1-1.646,1.64c-.565-.045-1.144.04-1.55-.481a1.268,1.268,0,0,1-.321-.827c.014-.74,0-1.481,0-2.222" transform="translate(-68.924 -379.354)" fill="#3f5395"/>
    <path id="Path_43425" data-name="Path 43425" d="M607.282,193.626c0-.693.036-1.389-.01-2.079a1.379,1.379,0,0,1,1.357-1.357,4.363,4.363,0,0,1,.951.061,1.379,1.379,0,0,1,1.2,1.515c.053,1.354.026,2.711.01,4.067a1.429,1.429,0,0,1-1.379,1.385c-.261.011-.524.01-.786,0a1.308,1.308,0,0,1-1.348-1.371c0-.031,0-.062,0-.093q0-1.063,0-2.126" transform="translate(-550.983 -172.575)" fill="#3f5395"/>
    <path id="Path_43426" data-name="Path 43426" d="M229.358,531.938a1.6,1.6,0,0,1,1.807,1.775,1.672,1.672,0,0,1-1.792,1.769,1.568,1.568,0,0,1-1.776-1.823c.01-1.135.555-1.824,1.762-1.72" transform="translate(-206.501 -482.664)" fill="#3f5395"/>
    <path id="Path_43427" data-name="Path 43427" d="M493.421,647.633c-.094-1.13.483-1.811,1.818-1.747,1.185.057,1.7.559,1.7,1.818,0,1.21-.544,1.679-1.841,1.723a1.471,1.471,0,0,1-1.677-1.794" transform="translate(-447.677 -586.069)" fill="#3f5395"/>
    <path id="Path_43428" data-name="Path 43428" d="M872.989,609.568c-.1-1.186.517-1.792,1.792-1.786a1.635,1.635,0,0,1,1.74,1.808c-.066,1.226-.548,1.7-1.831,1.747a1.471,1.471,0,0,1-1.7-1.77" transform="translate(-792.064 -551.498)" fill="#3f5395"/>
    <path id="Path_43429" data-name="Path 43429" d="M417.512,381.7c-.1-1.159.5-1.82,1.805-1.759,1.194.056,1.713.554,1.713,1.806,0,1.219-.539,1.689-1.829,1.735a1.471,1.471,0,0,1-1.689-1.782" transform="translate(-378.804 -344.75)" fill="#3f5395"/>
    <path id="Path_43430" data-name="Path 43430" d="M37.95,381.691c-.1-1.147.494-1.816,1.811-1.754,1.19.056,1.708.556,1.707,1.812,0,1.215-.541,1.685-1.834,1.729a1.471,1.471,0,0,1-1.684-1.787" transform="translate(-34.422 -344.749)" fill="#3f5395"/>
    <path id="Path_43431" data-name="Path 43431" d="M569.331,77.719c-.09-1.1.466-1.8,1.832-1.733,1.174.058,1.687.564,1.686,1.833,0,1.2-.55,1.667-1.855,1.708a1.472,1.472,0,0,1-1.663-1.808" transform="translate(-516.55 -68.945)" fill="#3f5395"/>
    <path id="Path_43432" data-name="Path 43432" d="M797.066,913.565c-.09-1.1.464-1.8,1.834-1.731,1.173.058,1.686.565,1.685,1.834,0,1.2-.55,1.665-1.857,1.706a1.472,1.472,0,0,1-1.661-1.81" transform="translate(-723.178 -827.388)" fill="#3f5395"/>
    <path id="Path_43433" data-name="Path 43433" d="M910.936,913.57c-.091-1.105.469-1.8,1.829-1.736,1.176.058,1.69.563,1.689,1.83,0,1.2-.548,1.669-1.853,1.711a1.471,1.471,0,0,1-1.666-1.805" transform="translate(-826.494 -827.389)" fill="#3f5395"/>
    <path id="Path_43434" data-name="Path 43434" d="M303.6,723.684c-.121-1.068.464-1.775,1.718-1.749a1.635,1.635,0,0,1,1.814,1.816c-.065,1.206-.558,1.678-1.853,1.722a1.471,1.471,0,0,1-1.68-1.789" transform="translate(-275.444 -655.078)" fill="#3f5395"/>
    <path id="Path_43435" data-name="Path 43435" d="M683.208,685.553c-.1-1.183.515-1.792,1.793-1.785a1.635,1.635,0,0,1,1.74,1.809c-.066,1.225-.548,1.7-1.832,1.746a1.471,1.471,0,0,1-1.7-1.771" transform="translate(-619.873 -620.447)" fill="#3f5395"/>
    <path id="Path_43436" data-name="Path 43436" d="M81.236,770.5c-1.233,0-2.467,0-3.7,0A1.551,1.551,0,0,1,76,769.02c-.02-2.575-.016-5.15,0-7.725a1.587,1.587,0,0,1,1.618-1.347c1.866-.007,3.731,0,5.6,0,.524,0,1.05.025,1.572-.006a1.6,1.6,0,0,1,1.751,1.7c.02,2.436.014,4.873,0,7.309a1.568,1.568,0,0,1-1.6,1.554c-1.233.005-2.467,0-3.7,0" transform="translate(-68.947 -689.562)" fill="#293d7e"/>
    <path id="Path_43437" data-name="Path 43437" d="M759.231,81.34c0-1.249,0-2.5,0-3.747a1.465,1.465,0,0,1,1.507-1.532c1.28-.019,2.56-.007,3.839-.007,1.141,0,2.283.03,3.423-.01a1.674,1.674,0,0,1,1.783,1.773c0,2.375,0,4.75,0,7.124a1.606,1.606,0,0,1-1.681,1.667q-3.724,0-7.447,0a1.449,1.449,0,0,1-1.41-1.377c-.016-1.3,0-2.59,0-3.886h-.007" transform="translate(-688.859 -69)" fill="#293d7e"/>
    <path id="Path_43438" data-name="Path 43438" d="M76.021,81.34c0-1.249,0-2.5,0-3.747a1.465,1.465,0,0,1,1.506-1.533c1.249-.02,2.5-.007,3.747-.008,1.172,0,2.345.03,3.515-.01a1.675,1.675,0,0,1,1.783,1.772c0,2.375,0,4.75,0,7.124a1.606,1.606,0,0,1-1.681,1.668q-3.724,0-7.447,0a1.449,1.449,0,0,1-1.411-1.376c-.017-1.3,0-2.59,0-3.886h-.007" transform="translate(-68.973 -68.999)" fill="#293d7e"/>
  </g>
</svg>
