<svg id="Group_47896" data-name="Group 47896" xmlns="http://www.w3.org/2000/svg" width="12" height="9" viewBox="0 0 12 9">
  <path id="Path_76340" data-name="Path 76340" d="M10.625,9H1.375A1.376,1.376,0,0,1,0,7.625V1.375A1.376,1.376,0,0,1,1.375,0h9.25A1.376,1.376,0,0,1,12,1.375v6.25A1.376,1.376,0,0,1,10.625,9ZM1.375.75a.626.626,0,0,0-.625.625v6.25a.626.626,0,0,0,.625.625h9.25a.626.626,0,0,0,.625-.625V1.375A.626.626,0,0,0,10.625.75Zm0,0" fill="#fff"/>
  <path id="Path_76341" data-name="Path 76341" d="M65,66a1,1,0,1,1,1-1A1,1,0,0,1,65,66Zm0-1.252a.25.25,0,1,0,.25.25A.251.251,0,0,0,65,64.751Zm0,0" transform="translate(-62.497 -62.501)" fill="#fff"/>
  <path id="Path_76342" data-name="Path 76342" d="M.379,115.633a.372.372,0,0,1-.265-.11.376.376,0,0,1,0-.532l2.77-2.775a.876.876,0,0,1,1.24,0l.63.631,2.38-2.384a.876.876,0,0,1,1.24,0l3.52,3.527a.375.375,0,1,1-.531.531l-3.52-3.527a.128.128,0,0,0-.179,0l-2.645,2.65a.375.375,0,0,1-.53,0l-.9-.9a.108.108,0,0,0-.18,0l-2.77,2.775a.372.372,0,0,1-.265.11Zm0,0" transform="translate(-0.004 -107.635)" fill="#fff"/>
</svg>
